<?xml version="1.0" encoding="utf-8"?>
<!-- Generator: Adobe Illustrator 28.2.0, SVG Export Plug-In . SVG Version: 6.00 Build 0)  -->
<svg version="1.1" xmlns="http://www.w3.org/2000/svg" xmlns:xlink="http://www.w3.org/1999/xlink" x="0px" y="0px"
	 viewBox="0 0 1920 1080" style="enable-background:new 0 0 1920 1080;" xml:space="preserve">
<style type="text/css">
	.st0{fill:#FFFFFF;}
	.st1{fill:#A63882;}
	.st2{fill:#FEFEFE;}
	.st3{fill:#36A762;}
	.st4{fill:#1A171B;}
	.st5{fill:#1B181C;}
	.st6{fill:#201E21;}
	.st7{fill:#FDFEFD;}
	.st8{fill:#FCFDFD;}
	.st9{fill:#FDFDFD;}
	.st10{fill:#54B479;}
	.st11{fill:#3FAB69;}
	.st12{fill:#37A863;}
	.st13{fill:#4FB276;}
	.st14{fill:#48AF70;}
	.st15{fill:#70C08F;}
	.st16{fill:#55B57A;}
	.st17{fill:#65BC87;}
	.st18{fill:#3767AF;}
	.st19{fill:#EC6527;}
	.st20{fill:#1E1207;}
	.st21{fill:#F5E2C2;}
	.st22{fill:none;stroke:#932525;stroke-width:16.8282;stroke-miterlimit:10;}
	.st23{fill:none;stroke:#FFFFFF;stroke-width:6.7458;stroke-miterlimit:10;}
	.st24{fill:none;stroke:#FFFFFF;stroke-width:6.7458;stroke-miterlimit:10;stroke-dasharray:11.4551,11.4551;}
	.st25{fill:none;stroke:#FFFFFF;stroke-width:2;stroke-miterlimit:10;}
	.st26{fill:none;stroke:#FFFFFF;stroke-width:2;stroke-miterlimit:10;stroke-dasharray:11.4551,11.4551;}
	.st27{fill:none;stroke:#FFFFFF;stroke-width:6.4817;stroke-miterlimit:10;}
	.st28{fill:none;stroke:#FFFFFF;stroke-width:6.4817;stroke-miterlimit:10;stroke-dasharray:10.9522,10.9522;}
	.st29{fill:none;stroke:#FFFFFF;stroke-width:2;stroke-miterlimit:10;stroke-dasharray:10.9522,10.9522;}
	.st30{fill:#FF0000;}
	.st31{fill:#FF00DB;}
	.st32{fill:#F5FFF8;}
	.st33{fill:#FFF3FC;}
</style>
<g id="OTHER">
</g>
<g id="Typographies">
</g>
<g id="Recap_logo">
</g>
<g id="Logo_RS">
</g>
<g id="Logo_Responsive">
</g>
<g id="Logo_Grand_Format">
</g>
<g id="Lgo_grand_format_transp">
	<g>
		<g>
			<rect x="599.13" y="828.01" class="st0" width="720.59" height="45.72"/>
			<path class="st1" d="M690.27,845.8c-0.04-1.02-0.04-2.35-1.48-2.24c-1.62,0.35-1.8,1.46-1.75,2.57c0.04,1.11,0.26,2.38,1.8,2.19
				C690.26,848.14,690.33,846.84,690.27,845.8z M729.26,843.79c-0.48-0.05-1.41,0.93-1.53,1.55c-0.28,1.36-0.42,3.02,1.57,3.26
				c0.49,0.05,1.11-0.86,1.57-1.25C730.69,845.76,731.31,844.02,729.26,843.79z M690.27,845.8c-0.04-1.02-0.04-2.35-1.48-2.24
				c-1.62,0.35-1.8,1.46-1.75,2.57c0.04,1.11,0.26,2.38,1.8,2.19C690.26,848.14,690.33,846.84,690.27,845.8z M729.26,843.79
				c-0.48-0.05-1.41,0.93-1.53,1.55c-0.28,1.36-0.42,3.02,1.57,3.26c0.49,0.05,1.11-0.86,1.57-1.25
				C730.69,845.76,731.31,844.02,729.26,843.79z M690.27,845.8c-0.04-1.02-0.04-2.35-1.48-2.24c-1.62,0.35-1.8,1.46-1.75,2.57
				c0.04,1.11,0.26,2.38,1.8,2.19C690.26,848.14,690.33,846.84,690.27,845.8z M729.26,843.79c-0.48-0.05-1.41,0.93-1.53,1.55
				c-0.28,1.36-0.42,3.02,1.57,3.26c0.49,0.05,1.11-0.86,1.57-1.25C730.69,845.76,731.31,844.02,729.26,843.79z M785.81,851.05
				c-0.81,0.76-1.66,1.18-1.8,1.78c-0.14,0.69,0.12,1.92,0.62,2.19c1.22,0.69,2.19,0.04,2.17-1.38
				C786.8,852.9,786.27,852.18,785.81,851.05z M690.27,845.8c-0.04-1.02-0.04-2.35-1.48-2.24c-1.62,0.35-1.8,1.46-1.75,2.57
				c0.04,1.11,0.26,2.38,1.8,2.19C690.26,848.14,690.33,846.84,690.27,845.8z M729.26,843.79c-0.48-0.05-1.41,0.93-1.53,1.55
				c-0.28,1.36-0.42,3.02,1.57,3.26c0.49,0.05,1.11-0.86,1.57-1.25C730.69,845.76,731.31,844.02,729.26,843.79z M785.81,851.05
				c-0.81,0.76-1.66,1.18-1.8,1.78c-0.14,0.69,0.12,1.92,0.62,2.19c1.22,0.69,2.19,0.04,2.17-1.38
				C786.8,852.9,786.27,852.18,785.81,851.05z M690.27,845.8c-0.04-1.02-0.04-2.35-1.48-2.24c-1.62,0.35-1.8,1.46-1.75,2.57
				c0.04,1.11,0.26,2.38,1.8,2.19C690.26,848.14,690.33,846.84,690.27,845.8z M729.26,843.79c-0.48-0.05-1.41,0.93-1.53,1.55
				c-0.28,1.36-0.42,3.02,1.57,3.26c0.49,0.05,1.11-0.86,1.57-1.25C730.69,845.76,731.31,844.02,729.26,843.79z M785.81,851.05
				c-0.81,0.76-1.66,1.18-1.8,1.78c-0.14,0.69,0.12,1.92,0.62,2.19c1.22,0.69,2.19,0.04,2.17-1.38
				C786.8,852.9,786.27,852.18,785.81,851.05z M690.27,845.8c-0.04-1.02-0.04-2.35-1.48-2.24c-1.62,0.35-1.8,1.46-1.75,2.57
				c0.04,1.11,0.26,2.38,1.8,2.19C690.26,848.14,690.33,846.84,690.27,845.8z M729.26,843.79c-0.48-0.05-1.41,0.93-1.53,1.55
				c-0.28,1.36-0.42,3.02,1.57,3.26c0.49,0.05,1.11-0.86,1.57-1.25C730.69,845.76,731.31,844.02,729.26,843.79z M785.81,851.05
				c-0.81,0.76-1.66,1.18-1.8,1.78c-0.14,0.69,0.12,1.92,0.62,2.19c1.22,0.69,2.19,0.04,2.17-1.38
				C786.8,852.9,786.27,852.18,785.81,851.05z M690.27,845.8c-0.04-1.02-0.04-2.35-1.48-2.24c-1.62,0.35-1.8,1.46-1.75,2.57
				c0.04,1.11,0.26,2.38,1.8,2.19C690.26,848.14,690.33,846.84,690.27,845.8z M729.26,843.79c-0.48-0.05-1.41,0.93-1.53,1.55
				c-0.28,1.36-0.42,3.02,1.57,3.26c0.49,0.05,1.11-0.86,1.57-1.25C730.69,845.76,731.31,844.02,729.26,843.79z M785.81,851.05
				c-0.81,0.76-1.66,1.18-1.8,1.78c-0.14,0.69,0.12,1.92,0.62,2.19c1.22,0.69,2.19,0.04,2.17-1.38
				C786.8,852.9,786.27,852.18,785.81,851.05z M690.27,845.8c-0.04-1.02-0.04-2.35-1.48-2.24c-1.62,0.35-1.8,1.46-1.75,2.57
				c0.04,1.11,0.26,2.38,1.8,2.19C690.26,848.14,690.33,846.84,690.27,845.8z M729.26,843.79c-0.48-0.05-1.41,0.93-1.53,1.55
				c-0.28,1.36-0.42,3.02,1.57,3.26c0.49,0.05,1.11-0.86,1.57-1.25C730.69,845.76,731.31,844.02,729.26,843.79z M785.81,851.05
				c-0.81,0.76-1.66,1.18-1.8,1.78c-0.14,0.69,0.12,1.92,0.62,2.19c1.22,0.69,2.19,0.04,2.17-1.38
				C786.8,852.9,786.27,852.18,785.81,851.05z M690.27,845.8c-0.04-1.02-0.04-2.35-1.48-2.24c-1.62,0.35-1.8,1.46-1.75,2.57
				c0.04,1.11,0.26,2.38,1.8,2.19C690.26,848.14,690.33,846.84,690.27,845.8z M729.26,843.79c-0.48-0.05-1.41,0.93-1.53,1.55
				c-0.28,1.36-0.42,3.02,1.57,3.26c0.49,0.05,1.11-0.86,1.57-1.25C730.69,845.76,731.31,844.02,729.26,843.79z M785.81,851.05
				c-0.81,0.76-1.66,1.18-1.8,1.78c-0.14,0.69,0.12,1.92,0.62,2.19c1.22,0.69,2.19,0.04,2.17-1.38
				C786.8,852.9,786.27,852.18,785.81,851.05z M963.47,850.81c-1.29-2.33,1.38-7.18-2.31-7.28c-4.62-0.14-2.54,4.81-2.68,7.56
				c-0.14,2.65-1.36,7.41,1.99,7.48C965.27,858.65,962.12,853.59,963.47,850.81z M963.47,850.81c-1.29-2.33,1.38-7.18-2.31-7.28
				c-4.62-0.14-2.54,4.81-2.68,7.56c-0.14,2.65-1.36,7.41,1.99,7.48C965.27,858.65,962.12,853.59,963.47,850.81z M690.27,845.8
				c-0.04-1.02-0.04-2.35-1.48-2.24c-1.62,0.35-1.8,1.46-1.75,2.57c0.04,1.11,0.26,2.38,1.8,2.19
				C690.26,848.14,690.33,846.84,690.27,845.8z M729.26,843.79c-0.48-0.05-1.41,0.93-1.53,1.55c-0.28,1.36-0.42,3.02,1.57,3.26
				c0.49,0.05,1.11-0.86,1.57-1.25C730.69,845.76,731.31,844.02,729.26,843.79z M785.81,851.05c-0.81,0.76-1.66,1.18-1.8,1.78
				c-0.14,0.69,0.12,1.92,0.62,2.19c1.22,0.69,2.19,0.04,2.17-1.38C786.8,852.9,786.27,852.18,785.81,851.05z M690.27,845.8
				c-0.04-1.02-0.04-2.35-1.48-2.24c-1.62,0.35-1.8,1.46-1.75,2.57c0.04,1.11,0.26,2.38,1.8,2.19
				C690.26,848.14,690.33,846.84,690.27,845.8z M729.26,843.79c-0.48-0.05-1.41,0.93-1.53,1.55c-0.28,1.36-0.42,3.02,1.57,3.26
				c0.49,0.05,1.11-0.86,1.57-1.25C730.69,845.76,731.31,844.02,729.26,843.79z M785.81,851.05c-0.81,0.76-1.66,1.18-1.8,1.78
				c-0.14,0.69,0.12,1.92,0.62,2.19c1.22,0.69,2.19,0.04,2.17-1.38C786.8,852.9,786.27,852.18,785.81,851.05z M963.47,850.81
				c-1.29-2.33,1.38-7.18-2.31-7.28c-4.62-0.14-2.54,4.81-2.68,7.56c-0.14,2.65-1.36,7.41,1.99,7.48
				C965.27,858.65,962.12,853.59,963.47,850.81z M1037.11,852.59c-0.26-1.11-0.74-2.45-2.05-2.2c-0.51,0.11-0.95,1.76-0.99,2.73
				c-0.05,1.08,0.28,2.29,1.85,2.2C1037.24,854.81,1037.38,853.73,1037.11,852.59z M963.47,850.81c-1.29-2.33,1.38-7.18-2.31-7.28
				c-4.62-0.14-2.54,4.81-2.68,7.56c-0.14,2.65-1.36,7.41,1.99,7.48C965.27,858.65,962.12,853.59,963.47,850.81z M1037.11,852.59
				c-0.26-1.11-0.74-2.45-2.05-2.2c-0.51,0.11-0.95,1.76-0.99,2.73c-0.05,1.08,0.28,2.29,1.85,2.2
				C1037.24,854.81,1037.38,853.73,1037.11,852.59z M690.27,845.8c-0.04-1.02-0.04-2.35-1.48-2.24c-1.62,0.35-1.8,1.46-1.75,2.57
				c0.04,1.11,0.26,2.38,1.8,2.19C690.26,848.14,690.33,846.84,690.27,845.8z M729.26,843.79c-0.48-0.05-1.41,0.93-1.53,1.55
				c-0.28,1.36-0.42,3.02,1.57,3.26c0.49,0.05,1.11-0.86,1.57-1.25C730.69,845.76,731.31,844.02,729.26,843.79z M785.81,851.05
				c-0.81,0.76-1.66,1.18-1.8,1.78c-0.14,0.69,0.12,1.92,0.62,2.19c1.22,0.69,2.19,0.04,2.17-1.38
				C786.8,852.9,786.27,852.18,785.81,851.05z M690.27,845.8c-0.04-1.02-0.04-2.35-1.48-2.24c-1.62,0.35-1.8,1.46-1.75,2.57
				c0.04,1.11,0.26,2.38,1.8,2.19C690.26,848.14,690.33,846.84,690.27,845.8z M729.26,843.79c-0.48-0.05-1.41,0.93-1.53,1.55
				c-0.28,1.36-0.42,3.02,1.57,3.26c0.49,0.05,1.11-0.86,1.57-1.25C730.69,845.76,731.31,844.02,729.26,843.79z M785.81,851.05
				c-0.81,0.76-1.66,1.18-1.8,1.78c-0.14,0.69,0.12,1.92,0.62,2.19c1.22,0.69,2.19,0.04,2.17-1.38
				C786.8,852.9,786.27,852.18,785.81,851.05z M963.47,850.81c-1.29-2.33,1.38-7.18-2.31-7.28c-4.62-0.14-2.54,4.81-2.68,7.56
				c-0.14,2.65-1.36,7.41,1.99,7.48C965.27,858.65,962.12,853.59,963.47,850.81z M1037.11,852.59c-0.26-1.11-0.74-2.45-2.05-2.2
				c-0.51,0.11-0.95,1.76-0.99,2.73c-0.05,1.08,0.28,2.29,1.85,2.2C1037.24,854.81,1037.38,853.73,1037.11,852.59z M963.47,850.81
				c-1.29-2.33,1.38-7.18-2.31-7.28c-4.62-0.14-2.54,4.81-2.68,7.56c-0.14,2.65-1.36,7.41,1.99,7.48
				C965.27,858.65,962.12,853.59,963.47,850.81z M1037.11,852.59c-0.26-1.11-0.74-2.45-2.05-2.2c-0.51,0.11-0.95,1.76-0.99,2.73
				c-0.05,1.08,0.28,2.29,1.85,2.2C1037.24,854.81,1037.38,853.73,1037.11,852.59z M690.27,845.8c-0.04-1.02-0.04-2.35-1.48-2.24
				c-1.62,0.35-1.8,1.46-1.75,2.57c0.04,1.11,0.26,2.38,1.8,2.19C690.26,848.14,690.33,846.84,690.27,845.8z M729.26,843.79
				c-0.48-0.05-1.41,0.93-1.53,1.55c-0.28,1.36-0.42,3.02,1.57,3.26c0.49,0.05,1.11-0.86,1.57-1.25
				C730.69,845.76,731.31,844.02,729.26,843.79z M785.81,851.05c-0.81,0.76-1.66,1.18-1.8,1.78c-0.14,0.69,0.12,1.92,0.62,2.19
				c1.22,0.69,2.19,0.04,2.17-1.38C786.8,852.9,786.27,852.18,785.81,851.05z M690.27,845.8c-0.04-1.02-0.04-2.35-1.48-2.24
				c-1.62,0.35-1.8,1.46-1.75,2.57c0.04,1.11,0.26,2.38,1.8,2.19C690.26,848.14,690.33,846.84,690.27,845.8z M729.26,843.79
				c-0.48-0.05-1.41,0.93-1.53,1.55c-0.28,1.36-0.42,3.02,1.57,3.26c0.49,0.05,1.11-0.86,1.57-1.25
				C730.69,845.76,731.31,844.02,729.26,843.79z M785.81,851.05c-0.81,0.76-1.66,1.18-1.8,1.78c-0.14,0.69,0.12,1.92,0.62,2.19
				c1.22,0.69,2.19,0.04,2.17-1.38C786.8,852.9,786.27,852.18,785.81,851.05z M963.47,850.81c-1.29-2.33,1.38-7.18-2.31-7.28
				c-4.62-0.14-2.54,4.81-2.68,7.56c-0.14,2.65-1.36,7.41,1.99,7.48C965.27,858.65,962.12,853.59,963.47,850.81z M1037.11,852.59
				c-0.26-1.11-0.74-2.45-2.05-2.2c-0.51,0.11-0.95,1.76-0.99,2.73c-0.05,1.08,0.28,2.29,1.85,2.2
				C1037.24,854.81,1037.38,853.73,1037.11,852.59z M1146.35,843.05c-1.53,0-2.79,1.46-2.79,3.28c0,1.83,1.25,3.3,2.79,3.3
				c1.55,0,2.79-1.46,2.79-3.3C1149.14,844.51,1147.91,843.05,1146.35,843.05z M963.47,850.81c-1.29-2.33,1.38-7.18-2.31-7.28
				c-4.62-0.14-2.54,4.81-2.68,7.56c-0.14,2.65-1.36,7.41,1.99,7.48C965.27,858.65,962.12,853.59,963.47,850.81z M1037.11,852.59
				c-0.26-1.11-0.74-2.45-2.05-2.2c-0.51,0.11-0.95,1.76-0.99,2.73c-0.05,1.08,0.28,2.29,1.85,2.2
				C1037.24,854.81,1037.38,853.73,1037.11,852.59z M1146.35,843.05c-1.53,0-2.79,1.46-2.79,3.28c0,1.83,1.25,3.3,2.79,3.3
				c1.55,0,2.79-1.46,2.79-3.3C1149.14,844.51,1147.91,843.05,1146.35,843.05z M690.27,845.8c-0.04-1.02-0.04-2.35-1.48-2.24
				c-1.62,0.35-1.8,1.46-1.75,2.57c0.04,1.11,0.26,2.38,1.8,2.19C690.26,848.14,690.33,846.84,690.27,845.8z M729.26,843.79
				c-0.48-0.05-1.41,0.93-1.53,1.55c-0.28,1.36-0.42,3.02,1.57,3.26c0.49,0.05,1.11-0.86,1.57-1.25
				C730.69,845.76,731.31,844.02,729.26,843.79z M785.81,851.05c-0.81,0.76-1.66,1.18-1.8,1.78c-0.14,0.69,0.12,1.92,0.62,2.19
				c1.22,0.69,2.19,0.04,2.17-1.38C786.8,852.9,786.27,852.18,785.81,851.05z M690.27,845.8c-0.04-1.02-0.04-2.35-1.48-2.24
				c-1.62,0.35-1.8,1.46-1.75,2.57c0.04,1.11,0.26,2.38,1.8,2.19C690.26,848.14,690.33,846.84,690.27,845.8z M729.26,843.79
				c-0.48-0.05-1.41,0.93-1.53,1.55c-0.28,1.36-0.42,3.02,1.57,3.26c0.49,0.05,1.11-0.86,1.57-1.25
				C730.69,845.76,731.31,844.02,729.26,843.79z M785.81,851.05c-0.81,0.76-1.66,1.18-1.8,1.78c-0.14,0.69,0.12,1.92,0.62,2.19
				c1.22,0.69,2.19,0.04,2.17-1.38C786.8,852.9,786.27,852.18,785.81,851.05z M963.47,850.81c-1.29-2.33,1.38-7.18-2.31-7.28
				c-4.62-0.14-2.54,4.81-2.68,7.56c-0.14,2.65-1.36,7.41,1.99,7.48C965.27,858.65,962.12,853.59,963.47,850.81z M1037.11,852.59
				c-0.26-1.11-0.74-2.45-2.05-2.2c-0.51,0.11-0.95,1.76-0.99,2.73c-0.05,1.08,0.28,2.29,1.85,2.2
				C1037.24,854.81,1037.38,853.73,1037.11,852.59z M1146.35,843.05c-1.53,0-2.79,1.46-2.79,3.28c0,1.83,1.25,3.3,2.79,3.3
				c1.55,0,2.79-1.46,2.79-3.3C1149.14,844.51,1147.91,843.05,1146.35,843.05z M1178.39,851.07c-1.11-2.35,1.66-7.42-2.59-7.69
				c-3.7-0.23-2.35,4.6-2.26,7.19c0.11,2.87-1.87,7.79,2.22,8.09C1179.4,858.95,1177.74,854.14,1178.39,851.07z M1207.15,843.65
				c-1.6-0.25-1.83,1.16-1.83,2.29c-0.02,1.13,0.12,2.61,1.78,2.35c1.46-0.23,1.23-1.64,1.27-3.16
				C1208.09,844.77,1207.7,843.72,1207.15,843.65z M1207.15,843.65c-1.6-0.25-1.83,1.16-1.83,2.29c-0.02,1.13,0.12,2.61,1.78,2.35
				c1.46-0.23,1.23-1.64,1.27-3.16C1208.09,844.77,1207.7,843.72,1207.15,843.65z M1178.39,851.07c-1.11-2.35,1.66-7.42-2.59-7.69
				c-3.7-0.23-2.35,4.6-2.26,7.19c0.11,2.87-1.87,7.79,2.22,8.09C1179.4,858.95,1177.74,854.14,1178.39,851.07z M963.47,850.81
				c-1.29-2.33,1.38-7.18-2.31-7.28c-4.62-0.14-2.54,4.81-2.68,7.56c-0.14,2.65-1.36,7.41,1.99,7.48
				C965.27,858.65,962.12,853.59,963.47,850.81z M1037.11,852.59c-0.26-1.11-0.74-2.45-2.05-2.2c-0.51,0.11-0.95,1.76-0.99,2.73
				c-0.05,1.08,0.28,2.29,1.85,2.2C1037.24,854.81,1037.38,853.73,1037.11,852.59z M1146.35,843.05c-1.53,0-2.79,1.46-2.79,3.28
				c0,1.83,1.25,3.3,2.79,3.3c1.55,0,2.79-1.46,2.79-3.3C1149.14,844.51,1147.91,843.05,1146.35,843.05z M690.27,845.8
				c-0.04-1.02-0.04-2.35-1.48-2.24c-1.62,0.35-1.8,1.46-1.75,2.57c0.04,1.11,0.26,2.38,1.8,2.19
				C690.26,848.14,690.33,846.84,690.27,845.8z M729.26,843.79c-0.48-0.05-1.41,0.93-1.53,1.55c-0.28,1.36-0.42,3.02,1.57,3.26
				c0.49,0.05,1.11-0.86,1.57-1.25C730.69,845.76,731.31,844.02,729.26,843.79z M785.81,851.05c-0.81,0.76-1.66,1.18-1.8,1.78
				c-0.14,0.69,0.12,1.92,0.62,2.19c1.22,0.69,2.19,0.04,2.17-1.38C786.8,852.9,786.27,852.18,785.81,851.05z M690.27,845.8
				c-0.04-1.02-0.04-2.35-1.48-2.24c-1.62,0.35-1.8,1.46-1.75,2.57c0.04,1.11,0.26,2.38,1.8,2.19
				C690.26,848.14,690.33,846.84,690.27,845.8z M729.26,843.79c-0.48-0.05-1.41,0.93-1.53,1.55c-0.28,1.36-0.42,3.02,1.57,3.26
				c0.49,0.05,1.11-0.86,1.57-1.25C730.69,845.76,731.31,844.02,729.26,843.79z M785.81,851.05c-0.81,0.76-1.66,1.18-1.8,1.78
				c-0.14,0.69,0.12,1.92,0.62,2.19c1.22,0.69,2.19,0.04,2.17-1.38C786.8,852.9,786.27,852.18,785.81,851.05z M963.47,850.81
				c-1.29-2.33,1.38-7.18-2.31-7.28c-4.62-0.14-2.54,4.81-2.68,7.56c-0.14,2.65-1.36,7.41,1.99,7.48
				C965.27,858.65,962.12,853.59,963.47,850.81z M1037.11,852.59c-0.26-1.11-0.74-2.45-2.05-2.2c-0.51,0.11-0.95,1.76-0.99,2.73
				c-0.05,1.08,0.28,2.29,1.85,2.2C1037.24,854.81,1037.38,853.73,1037.11,852.59z M1146.35,843.05c-1.53,0-2.79,1.46-2.79,3.28
				c0,1.83,1.25,3.3,2.79,3.3c1.55,0,2.79-1.46,2.79-3.3C1149.14,844.51,1147.91,843.05,1146.35,843.05z M1178.39,851.07
				c-1.11-2.35,1.66-7.42-2.59-7.69c-3.7-0.23-2.35,4.6-2.26,7.19c0.11,2.87-1.87,7.79,2.22,8.09
				C1179.4,858.95,1177.74,854.14,1178.39,851.07z M1207.15,843.65c-1.6-0.25-1.83,1.16-1.83,2.29c-0.02,1.13,0.12,2.61,1.78,2.35
				c1.46-0.23,1.23-1.64,1.27-3.16C1208.09,844.77,1207.7,843.72,1207.15,843.65z M1207.15,843.65c-1.6-0.25-1.83,1.16-1.83,2.29
				c-0.02,1.13,0.12,2.61,1.78,2.35c1.46-0.23,1.23-1.64,1.27-3.16C1208.09,844.77,1207.7,843.72,1207.15,843.65z M1178.39,851.07
				c-1.11-2.35,1.66-7.42-2.59-7.69c-3.7-0.23-2.35,4.6-2.26,7.19c0.11,2.87-1.87,7.79,2.22,8.09
				C1179.4,858.95,1177.74,854.14,1178.39,851.07z M963.47,850.81c-1.29-2.33,1.38-7.18-2.31-7.28c-4.62-0.14-2.54,4.81-2.68,7.56
				c-0.14,2.65-1.36,7.41,1.99,7.48C965.27,858.65,962.12,853.59,963.47,850.81z M1037.11,852.59c-0.26-1.11-0.74-2.45-2.05-2.2
				c-0.51,0.11-0.95,1.76-0.99,2.73c-0.05,1.08,0.28,2.29,1.85,2.2C1037.24,854.81,1037.38,853.73,1037.11,852.59z M1146.35,843.05
				c-1.53,0-2.79,1.46-2.79,3.28c0,1.83,1.25,3.3,2.79,3.3c1.55,0,2.79-1.46,2.79-3.3C1149.14,844.51,1147.91,843.05,1146.35,843.05
				z M690.27,845.8c-0.04-1.02-0.04-2.35-1.48-2.24c-1.62,0.35-1.8,1.46-1.75,2.57c0.04,1.11,0.26,2.38,1.8,2.19
				C690.26,848.14,690.33,846.84,690.27,845.8z M729.26,843.79c-0.48-0.05-1.41,0.93-1.53,1.55c-0.28,1.36-0.42,3.02,1.57,3.26
				c0.49,0.05,1.11-0.86,1.57-1.25C730.69,845.76,731.31,844.02,729.26,843.79z M785.81,851.05c-0.81,0.76-1.66,1.18-1.8,1.78
				c-0.14,0.69,0.12,1.92,0.62,2.19c1.22,0.69,2.19,0.04,2.17-1.38C786.8,852.9,786.27,852.18,785.81,851.05z M580.93,812.95v73.62
				h761.67v-73.62H580.93z M852.06,850.51c0.37,6.22-6.75,1.57-8.04,5.54c1.9,3.53,5.17,2.15,7.78,2.19
				c3.72,0.05,5.31,1.48,5.15,5.25c-0.12,3.37-1.71,4.73-4.94,4.46c-0.3-0.02-0.58-0.02-0.88,0c-19.24,1.25-19.24,1.25-19.24-18.23
				c0-15.04,0-15.04,15.24-15.02c2.05,0,4.07,0.05,6.12,0.02c2.56-0.05,3.74,1.15,3.65,3.7c-0.07,2.49-0.34,4.57-3.6,4.87
				c-3.03,0.28-6.38-1.13-9.4,1.62C845.63,849.15,851.73,844.99,852.06,850.51z M800.89,865.25c-4,4.32-8.5,4.16-12.27,0.23
				c-2.98-3.1-4.71-3.91-7.04,0.32c-2.06,3.76-6,2.56-8.66,1.73c-3.65-1.15-1.27-4.44-0.74-6.75c1.39-6,3.03-11.92,4.53-17.88
				c1.15-4.55,1.73-8.48,8.55-8.5c6.93-0.04,8.32,3.17,9.26,8.64c0.74,4.3,2.31,8.46,3.53,12.7
				C798.53,859.04,798.99,862.36,800.89,865.25z M800.98,844.53v-0.05c-0.02-0.3-0.05-0.6-0.09-0.9
				c5.15-10.58,19.08-13.56,25.59-5.34c2.15,2.72,4.62,6.72,1.46,9.28c-2.5,2.03-7.16,2.8-9.91-1.36c-0.78-1.15-0.97-2.93-2.93-2.47
				c-1.92,0.44-1.66,2.19-1.73,3.54c-0.12,2.61-0.09,5.25,0,7.88c0.05,1.38-0.09,3.12,1.55,3.69c1.92,0.63,2.27-1.04,2.93-2.35
				c2.42-4.78,7.32-3.44,9.79-1.83c3.69,2.38,0.95,6.44-1.01,9.12c-4.83,6.65-15.8,6.19-24.02-0.69
				C800.03,857.07,801.51,850.7,800.98,844.53z M745.01,841.16c-0.46-4.8,1.09-6.65,6.26-6.65c5.13-0.02,6.68,1.78,6.24,6.6
				c-0.32,3.47,0.16,7.02-0.11,10.49c-0.37,4.67,0.95,7.34,6.21,6.74c3.65-0.42,5.91,0.35,6.08,5.01c0.18,5.34-3.09,4.55-6.22,4.6
				h-0.88c-17.53,0.35-17.53,0.35-17.53-17.16C745.06,847.58,745.31,844.35,745.01,841.16z M727.45,862.94
				c0.64,4.67-2.27,5.04-5.96,5.1c-3.91,0.04-6.15-0.97-5.96-5.36c0.16-3.79,0.04-7.62,0.02-11.43v-0.88c0-16.4,0-16.29,16.42-15.73
				c6.15,0.21,10.19,2.47,10.79,8.96c0.65,6.98-1.25,12.47-9.31,13.05C729.14,856.94,726.83,858.26,727.45,862.94z M688.41,855.92
				c-2.22,2.43-1.55,4.9-1.41,7.09c0.3,4.8-2.54,4.92-6.12,5.01c-3.97,0.09-6.08-1.09-5.89-5.41c0.18-3.79,0.02-7.6,0.02-11.41
				c0-18.04,1.08-18.96,19.06-16.47c5.55,0.76,9.84,4.58,8.02,9.24c-2.43,6.3,0.71,11.5,0.39,17.16c-0.16,2.75,1.94,6.77-3.76,6.88
				c-4.67,0.07-8.18-0.62-8.32-6.31C690.34,859.82,691.17,857.56,688.41,855.92z M671.83,853.7c-0.16,10.99-3.69,14.69-13.9,14.76
				c-10.12,0.07-14.21-3.88-14.62-14.35c-0.16-4.11,0.21-8.23-0.11-12.33c-0.39-5.01,0.79-7.25,6.61-7.32
				c6.42-0.05,6.05,3.35,6.24,7.72c0.23,5.59-1.43,11.44,2.35,19.15c2.86-8.66,1.66-15.09,1.66-21.39c0-4.41,1.64-5.5,5.7-5.34
				c3.56,0.14,6.4,0.18,6.12,5.01C671.62,844.28,671.9,848.99,671.83,853.7z M629.21,858.55c-1.57-3.42-4.78-3.72-7.81-4.32
				c-5.18-3.03-9.01-7.04-6.56-13.44c2.68-6.98,9.05-7.62,15.34-6.95c6.42,0.69,10.99,3.77,10.54,11.23
				c-4.97,0.81-9.79,0.46-14.41-2.29c1.53,4.76,5.78,4.73,9.24,5.96c4.88,3.03,6.6,7.49,4.66,12.77c-1.8,4.94-6.15,6.7-11.18,6.93
				c-5.45,0.23-10.97-0.16-13.84-5.48c-3.72-6.91,1.78-6.79,6.22-7.16C624.34,855.69,624.92,862,629.21,858.55z M1144.25,862.76
				c0.58,5.27-3.05,5.06-6.81,5.27c-4.81,0.26-6.12-1.97-5.91-6.28c0.19-3.79,0.04-7.6,0.04-11.39c0-16.19,0-16.06,16.33-15.75
				c6.49,0.14,10.69,2.27,11.2,9.33c0.49,6.61-1.11,11.83-8.71,12.59C1146.34,856.94,1143.71,857.95,1144.25,862.76z
				 M1116.52,857.28c-3.79,3.12-0.46,11.27-8.68,10.77c-5.31-0.3-4.39-4.51-6.4-8.39c-0.79,7.3-4.76,9.38-10.72,8.38
				c-1.13-11.09-0.63-22.18-0.28-33.29c1.46-0.02,2.94,0.11,4.39-0.07c7.65-0.9,13.97,0.09,14.27,10.81
				c1.92-8.53,6.08-12.26,14.6-11c4.32,0.64,5.34,2.08,5.22,5.94c-0.19,6.72-0.23,13.45,0.02,20.17c0.16,4.67-0.3,7.6-6.38,7.55
				c-5.71-0.04-6.15-2.79-5.8-7.05C1116.83,859.96,1116.61,858.78,1116.52,857.28z M1062.47,837.97c-0.11-3.49,2.63-3.26,4.96-3.26
				c6.44-0.02,12.86,0.02,19.29,0.04c1.34,6.12-0.28,9.56-7.35,8.53c-1.55-0.23-3.91-0.64-4.43,1.48c-0.62,2.57,1.71,2.5,3.39,2.59
				c2.45,0.12,3.74,1.23,3.69,3.77c-0.04,2.31-1.5,2.8-3.42,2.93c-1.6,0.12-3.93-0.42-3.86,2.19c0.07,3.09,2.79,2.68,4.58,2.43
				c1.99-0.26,3.51-0.21,4.67,0.12c0.37,0.23,0.83,0.42,1.36,0.62c2.2,1.5,2.06,4.73,1.09,8.62c-0.58-0.02-1.16-0.04-1.75-0.09
				c-7.18-0.71-17.83,3.39-20.79-1.68C1059.33,858.42,1062.73,847.56,1062.47,837.97z M1036.07,834.9c5.36-1.57,7.23,1.43,8.27,6.05
				c1.5,6.54,3.54,12.98,4.94,19.54c0.48,2.27,2.87,5.77-0.19,6.95c-2.91,1.13-7.37,2.06-9.79-1c-3.05-3.88-4.8-5.57-7.88-0.07
				c-1.68,2.96-5.54,1.99-8.09,1.22c-3.76-1.15-1.64-4.46-1.11-6.72c1.5-6.54,3.6-12.94,5.01-19.5
				C1028.31,836.29,1030.39,833.31,1036.07,834.9z M1033.29,824.88c4.04-0.14,4.29,3.21,5.18,6.88c0.05,2.1-2.33,1.18-3.7,1.11
				c-3.47-0.16-5.24-3.1-5.8-5.71C1028.26,823.86,1031.56,824.95,1033.29,824.88z M1005.72,848.53c0,2.35,0.04,4.69,0,7.04
				c-0.18,9.03-3.69,12.54-12.86,12.86c-10.16,0.37-14.85-3.39-15.31-12.56c-0.23-4.67,0.19-9.38-0.11-14.05
				c-0.32-4.8,0.37-7.32,6.4-7.35c6.51-0.05,6.15,3.39,6.03,7.69c-0.12,4.39-0.07,8.78,0.02,13.17c0.04,1.38-0.14,3.23,1.78,3.49
				c2.38,0.33,2.91-1.73,3-3.39c0.21-4.97,0.44-9.96,0.11-14.92c-0.32-4.73,1.55-5.91,6.05-5.94c4.88-0.05,5.1,2.5,4.9,6.07
				C1005.62,843.26,1005.72,845.9,1005.72,848.53z M975.5,851.48c-0.04,12.06-4.43,17.09-14.9,16.98
				c-10.32-0.09-14.57-5.17-14.57-17.37c0.02-12.13,4.34-17.33,14.53-17.44C971.3,833.54,975.52,838.57,975.5,851.48z
				 M943.05,830.88c-3.61,13.47-7.23,26.96-10.84,40.45c-0.56,2.08-2.13,2.8-4.02,2.17c-2.56-0.85-1.22-2.77-0.81-4.32
				c3.19-12.38,6.45-24.76,9.63-37.15c0.53-2.1,1.15-4.02,3.74-4.02C942.54,828.01,943.41,828.92,943.05,830.88z M915.83,850.88
				c-0.05,3.53-0.26,7.05,0.05,10.54c0.42,4.78-1.04,6.68-6.24,6.68c-5.24,0-6.63-1.94-6.22-6.7c0.32-3.79-0.37-7.67,0.16-11.41
				c0.81-5.82-1.96-7.19-6.93-6.61v-8.53c7.32-0.05,14.64-0.12,21.95-0.11c1.97,0,4.5-0.37,4.41,2.73c-0.05,2.1,1.25,5.71-2.03,5.71
				C914.65,843.17,915.9,847.3,915.83,850.88z M884.6,834.71c3.21,0.02,6.42,0.19,9.63,0.28c0.11,2.91,0.63,5.89-1.57,8.36
				c-3.53,0.23-7.32-1.04-10.63,1.13c0.9,4.66,7.32,0.78,7.41,6.21c0.09,5.73-6.38,1.52-7.35,5.96c2.01,2.52,5.1,1.57,7.74,1.68
				c3.3,0.11,4.64,1.48,4.62,4.83c-0.02,3.23-0.97,5.06-4.48,4.78c-0.3-0.04-0.6-0.02-0.88,0c-19.38,1.5-19.38,1.5-19.38-17.95
				C869.7,834.69,869.7,834.67,884.6,834.71z M1161.11,850.26c0.05-11.99,4.51-16.86,15.2-16.61c10.09,0.25,14.3,5.5,14.25,17.77
				c-0.04,11.92-4.58,17.1-14.94,17.03C1165.08,868.39,1161.04,863.33,1161.11,850.26z M1193.28,850.47
				c0-16.42,3.3-19.03,19.73-15.64c4.99,1.02,8.76,4.51,7.21,9.12c-2.17,6.38,0.41,12.03,0.37,18c-0.04,2.73,1.38,6.12-3.61,6.01
				c-3.88-0.09-7.92,0.42-8.24-5.2c-0.14-2.22,0.39-4.6-1.73-7.02c-2.61,2.56-1.87,5.04-1.73,7.19c0.28,4.69-2.36,5.04-6.03,5.08
				c-3.86,0.04-6.17-0.9-6-5.29C1193.44,858.65,1193.28,854.54,1193.28,850.47z M1242.26,852.94c-0.21,2.91-0.3,5.89,0.02,8.78
				c0.55,5.2-1.87,6.35-6.63,6.37c-4.81,0-6.1-1.94-5.84-6.31c0.26-4.37,0.11-8.78,0.02-13.17c-0.04-2.22,0.56-5.17-3.1-4.99
				c-4.6,0.23-4.27-2.77-4.14-5.78c0.18-4.39,3.54-2.91,5.85-3.09c2.61-0.19,5.27-0.05,7.9-0.04c3.23,0,6.45,0.05,9.66-0.02
				c2.42-0.05,4.07,0.69,3.97,3.4c-0.09,1.9,0.79,5.08-1.92,5.06C1239.94,843.06,1242.56,848.81,1242.26,852.94z M1252.51,851.55
				c0-17.7,0-17.7,18.5-16.86c2.82,0.14,5.96-0.67,6,4.06c0.02,4.3-2.43,4.58-5.66,4.55c-2.17-0.02-4.57-0.55-6.74,1.5
				c1.39,2.98,3.4,2.33,5.01,2.63c2.35,0.44,2.47,2.13,2.47,3.93c0,1.75-1.01,2.45-2.7,2.73c-1.73,0.26-4.94-0.69-4.13,2.63
				c0.56,2.36,3.44,1.52,5.38,1.59c3.33,0.11,6.33-0.05,6.38,4.87c0.07,5.84-3.84,4.67-7.18,4.76
				C1252.51,868.35,1252.51,868.33,1252.51,851.55z M1295.13,862.73c-0.26-2.2,0.72-4.71-1.8-6.88c-2.59,2.34-1.8,4.85-1.68,6.98
				c0.28,4.6-2.17,5.2-5.94,5.18c-3.79,0-6.21-0.76-6.07-5.22c0.16-5.25,0.02-10.53,0.02-15.8c0-12.33,0-12.33,12.71-12.31
				c13.93,0.02,15.36,1.99,12.75,15.73c-0.72,3.76,2.65,7.25,1.97,11.41c-0.42,2.66,1.43,6.08-3.56,6.14
				C1299.52,868,1295.76,868.05,1295.13,862.73z M1293.72,843.61c-1.34-0.26-1.92,0.78-2.01,2.01c-0.11,1.15,0,2.34,1.31,2.66
				c1.55,0.37,1.68-0.95,1.9-1.82C1295.02,845.16,1295.02,843.88,1293.72,843.61z M1207.1,848.28c1.46-0.23,1.23-1.64,1.27-3.16
				c-0.28-0.35-0.67-1.41-1.22-1.48c-1.6-0.25-1.83,1.16-1.83,2.29C1205.3,847.07,1205.44,848.55,1207.1,848.28z M1178.39,851.07
				c-1.11-2.35,1.66-7.42-2.59-7.69c-3.7-0.23-2.35,4.6-2.26,7.19c0.11,2.87-1.87,7.79,2.22,8.09
				C1179.4,858.95,1177.74,854.14,1178.39,851.07z M1149.14,846.33c0-1.82-1.23-3.28-2.79-3.28c-1.53,0-2.79,1.46-2.79,3.28
				c0,1.83,1.25,3.3,2.79,3.3C1147.91,849.62,1149.14,848.16,1149.14,846.33z M1035.93,855.32c1.3-0.51,1.45-1.59,1.18-2.73
				c-0.26-1.11-0.74-2.45-2.05-2.2c-0.51,0.11-0.95,1.76-0.99,2.73C1034.03,854.19,1034.36,855.41,1035.93,855.32z M958.48,851.09
				c-0.14,2.65-1.36,7.41,1.99,7.48c4.8,0.09,1.64-4.97,3-7.76c-1.29-2.33,1.38-7.18-2.31-7.28
				C956.54,843.38,958.62,848.34,958.48,851.09z M784.02,852.83c-0.14,0.69,0.12,1.92,0.62,2.19c1.22,0.69,2.19,0.04,2.17-1.38
				c0-0.74-0.53-1.46-0.99-2.59C785,851.81,784.16,852.23,784.02,852.83z M730.87,847.35c-0.18-1.59,0.44-3.33-1.6-3.56
				c-0.48-0.05-1.41,0.93-1.53,1.55c-0.28,1.36-0.42,3.02,1.57,3.26C729.79,848.65,730.41,847.74,730.87,847.35z M688.79,843.56
				c-1.62,0.35-1.8,1.46-1.75,2.57c0.04,1.11,0.26,2.38,1.8,2.19c1.41-0.18,1.48-1.48,1.43-2.52
				C690.24,844.77,690.24,843.45,688.79,843.56z M785.81,851.05c-0.81,0.76-1.66,1.18-1.8,1.78c-0.14,0.69,0.12,1.92,0.62,2.19
				c1.22,0.69,2.19,0.04,2.17-1.38C786.8,852.9,786.27,852.18,785.81,851.05z M729.26,843.79c-0.48-0.05-1.41,0.93-1.53,1.55
				c-0.28,1.36-0.42,3.02,1.57,3.26c0.49,0.05,1.11-0.86,1.57-1.25C730.69,845.76,731.31,844.02,729.26,843.79z M690.27,845.8
				c-0.04-1.02-0.04-2.35-1.48-2.24c-1.62,0.35-1.8,1.46-1.75,2.57c0.04,1.11,0.26,2.38,1.8,2.19
				C690.26,848.14,690.33,846.84,690.27,845.8z M1146.35,843.05c-1.53,0-2.79,1.46-2.79,3.28c0,1.83,1.25,3.3,2.79,3.3
				c1.55,0,2.79-1.46,2.79-3.3C1149.14,844.51,1147.91,843.05,1146.35,843.05z M1037.11,852.59c-0.26-1.11-0.74-2.45-2.05-2.2
				c-0.51,0.11-0.95,1.76-0.99,2.73c-0.05,1.08,0.28,2.29,1.85,2.2C1037.24,854.81,1037.38,853.73,1037.11,852.59z M963.47,850.81
				c-1.29-2.33,1.38-7.18-2.31-7.28c-4.62-0.14-2.54,4.81-2.68,7.56c-0.14,2.65-1.36,7.41,1.99,7.48
				C965.27,858.65,962.12,853.59,963.47,850.81z M1178.39,851.07c-1.11-2.35,1.66-7.42-2.59-7.69c-3.7-0.23-2.35,4.6-2.26,7.19
				c0.11,2.87-1.87,7.79,2.22,8.09C1179.4,858.95,1177.74,854.14,1178.39,851.07z M1207.15,843.65c-1.6-0.25-1.83,1.16-1.83,2.29
				c-0.02,1.13,0.12,2.61,1.78,2.35c1.46-0.23,1.23-1.64,1.27-3.16C1208.09,844.77,1207.7,843.72,1207.15,843.65z M1207.15,843.65
				c-1.6-0.25-1.83,1.16-1.83,2.29c-0.02,1.13,0.12,2.61,1.78,2.35c1.46-0.23,1.23-1.64,1.27-3.16
				C1208.09,844.77,1207.7,843.72,1207.15,843.65z M1178.39,851.07c-1.11-2.35,1.66-7.42-2.59-7.69c-3.7-0.23-2.35,4.6-2.26,7.19
				c0.11,2.87-1.87,7.79,2.22,8.09C1179.4,858.95,1177.74,854.14,1178.39,851.07z M1146.35,843.05c-1.53,0-2.79,1.46-2.79,3.28
				c0,1.83,1.25,3.3,2.79,3.3c1.55,0,2.79-1.46,2.79-3.3C1149.14,844.51,1147.91,843.05,1146.35,843.05z M1037.11,852.59
				c-0.26-1.11-0.74-2.45-2.05-2.2c-0.51,0.11-0.95,1.76-0.99,2.73c-0.05,1.08,0.28,2.29,1.85,2.2
				C1037.24,854.81,1037.38,853.73,1037.11,852.59z M963.47,850.81c-1.29-2.33,1.38-7.18-2.31-7.28c-4.62-0.14-2.54,4.81-2.68,7.56
				c-0.14,2.65-1.36,7.41,1.99,7.48C965.27,858.65,962.12,853.59,963.47,850.81z M785.81,851.05c-0.81,0.76-1.66,1.18-1.8,1.78
				c-0.14,0.69,0.12,1.92,0.62,2.19c1.22,0.69,2.19,0.04,2.17-1.38C786.8,852.9,786.27,852.18,785.81,851.05z M729.26,843.79
				c-0.48-0.05-1.41,0.93-1.53,1.55c-0.28,1.36-0.42,3.02,1.57,3.26c0.49,0.05,1.11-0.86,1.57-1.25
				C730.69,845.76,731.31,844.02,729.26,843.79z M690.27,845.8c-0.04-1.02-0.04-2.35-1.48-2.24c-1.62,0.35-1.8,1.46-1.75,2.57
				c0.04,1.11,0.26,2.38,1.8,2.19C690.26,848.14,690.33,846.84,690.27,845.8z M785.81,851.05c-0.81,0.76-1.66,1.18-1.8,1.78
				c-0.14,0.69,0.12,1.92,0.62,2.19c1.22,0.69,2.19,0.04,2.17-1.38C786.8,852.9,786.27,852.18,785.81,851.05z M729.26,843.79
				c-0.48-0.05-1.41,0.93-1.53,1.55c-0.28,1.36-0.42,3.02,1.57,3.26c0.49,0.05,1.11-0.86,1.57-1.25
				C730.69,845.76,731.31,844.02,729.26,843.79z M690.27,845.8c-0.04-1.02-0.04-2.35-1.48-2.24c-1.62,0.35-1.8,1.46-1.75,2.57
				c0.04,1.11,0.26,2.38,1.8,2.19C690.26,848.14,690.33,846.84,690.27,845.8z M1146.35,843.05c-1.53,0-2.79,1.46-2.79,3.28
				c0,1.83,1.25,3.3,2.79,3.3c1.55,0,2.79-1.46,2.79-3.3C1149.14,844.51,1147.91,843.05,1146.35,843.05z M1037.11,852.59
				c-0.26-1.11-0.74-2.45-2.05-2.2c-0.51,0.11-0.95,1.76-0.99,2.73c-0.05,1.08,0.28,2.29,1.85,2.2
				C1037.24,854.81,1037.38,853.73,1037.11,852.59z M963.47,850.81c-1.29-2.33,1.38-7.18-2.31-7.28c-4.62-0.14-2.54,4.81-2.68,7.56
				c-0.14,2.65-1.36,7.41,1.99,7.48C965.27,858.65,962.12,853.59,963.47,850.81z M1178.39,851.07c-1.11-2.35,1.66-7.42-2.59-7.69
				c-3.7-0.23-2.35,4.6-2.26,7.19c0.11,2.87-1.87,7.79,2.22,8.09C1179.4,858.95,1177.74,854.14,1178.39,851.07z M1178.39,851.07
				c-1.11-2.35,1.66-7.42-2.59-7.69c-3.7-0.23-2.35,4.6-2.26,7.19c0.11,2.87-1.87,7.79,2.22,8.09
				C1179.4,858.95,1177.74,854.14,1178.39,851.07z M1146.35,843.05c-1.53,0-2.79,1.46-2.79,3.28c0,1.83,1.25,3.3,2.79,3.3
				c1.55,0,2.79-1.46,2.79-3.3C1149.14,844.51,1147.91,843.05,1146.35,843.05z M1037.11,852.59c-0.26-1.11-0.74-2.45-2.05-2.2
				c-0.51,0.11-0.95,1.76-0.99,2.73c-0.05,1.08,0.28,2.29,1.85,2.2C1037.24,854.81,1037.38,853.73,1037.11,852.59z M963.47,850.81
				c-1.29-2.33,1.38-7.18-2.31-7.28c-4.62-0.14-2.54,4.81-2.68,7.56c-0.14,2.65-1.36,7.41,1.99,7.48
				C965.27,858.65,962.12,853.59,963.47,850.81z M785.81,851.05c-0.81,0.76-1.66,1.18-1.8,1.78c-0.14,0.69,0.12,1.92,0.62,2.19
				c1.22,0.69,2.19,0.04,2.17-1.38C786.8,852.9,786.27,852.18,785.81,851.05z M729.26,843.79c-0.48-0.05-1.41,0.93-1.53,1.55
				c-0.28,1.36-0.42,3.02,1.57,3.26c0.49,0.05,1.11-0.86,1.57-1.25C730.69,845.76,731.31,844.02,729.26,843.79z M690.27,845.8
				c-0.04-1.02-0.04-2.35-1.48-2.24c-1.62,0.35-1.8,1.46-1.75,2.57c0.04,1.11,0.26,2.38,1.8,2.19
				C690.26,848.14,690.33,846.84,690.27,845.8z M785.81,851.05c-0.81,0.76-1.66,1.18-1.8,1.78c-0.14,0.69,0.12,1.92,0.62,2.19
				c1.22,0.69,2.19,0.04,2.17-1.38C786.8,852.9,786.27,852.18,785.81,851.05z M729.26,843.79c-0.48-0.05-1.41,0.93-1.53,1.55
				c-0.28,1.36-0.42,3.02,1.57,3.26c0.49,0.05,1.11-0.86,1.57-1.25C730.69,845.76,731.31,844.02,729.26,843.79z M690.27,845.8
				c-0.04-1.02-0.04-2.35-1.48-2.24c-1.62,0.35-1.8,1.46-1.75,2.57c0.04,1.11,0.26,2.38,1.8,2.19
				C690.26,848.14,690.33,846.84,690.27,845.8z M1037.11,852.59c-0.26-1.11-0.74-2.45-2.05-2.2c-0.51,0.11-0.95,1.76-0.99,2.73
				c-0.05,1.08,0.28,2.29,1.85,2.2C1037.24,854.81,1037.38,853.73,1037.11,852.59z M963.47,850.81c-1.29-2.33,1.38-7.18-2.31-7.28
				c-4.62-0.14-2.54,4.81-2.68,7.56c-0.14,2.65-1.36,7.41,1.99,7.48C965.27,858.65,962.12,853.59,963.47,850.81z M1037.11,852.59
				c-0.26-1.11-0.74-2.45-2.05-2.2c-0.51,0.11-0.95,1.76-0.99,2.73c-0.05,1.08,0.28,2.29,1.85,2.2
				C1037.24,854.81,1037.38,853.73,1037.11,852.59z M963.47,850.81c-1.29-2.33,1.38-7.18-2.31-7.28c-4.62-0.14-2.54,4.81-2.68,7.56
				c-0.14,2.65-1.36,7.41,1.99,7.48C965.27,858.65,962.12,853.59,963.47,850.81z M785.81,851.05c-0.81,0.76-1.66,1.18-1.8,1.78
				c-0.14,0.69,0.12,1.92,0.62,2.19c1.22,0.69,2.19,0.04,2.17-1.38C786.8,852.9,786.27,852.18,785.81,851.05z M729.26,843.79
				c-0.48-0.05-1.41,0.93-1.53,1.55c-0.28,1.36-0.42,3.02,1.57,3.26c0.49,0.05,1.11-0.86,1.57-1.25
				C730.69,845.76,731.31,844.02,729.26,843.79z M690.27,845.8c-0.04-1.02-0.04-2.35-1.48-2.24c-1.62,0.35-1.8,1.46-1.75,2.57
				c0.04,1.11,0.26,2.38,1.8,2.19C690.26,848.14,690.33,846.84,690.27,845.8z M785.81,851.05c-0.81,0.76-1.66,1.18-1.8,1.78
				c-0.14,0.69,0.12,1.92,0.62,2.19c1.22,0.69,2.19,0.04,2.17-1.38C786.8,852.9,786.27,852.18,785.81,851.05z M729.26,843.79
				c-0.48-0.05-1.41,0.93-1.53,1.55c-0.28,1.36-0.42,3.02,1.57,3.26c0.49,0.05,1.11-0.86,1.57-1.25
				C730.69,845.76,731.31,844.02,729.26,843.79z M690.27,845.8c-0.04-1.02-0.04-2.35-1.48-2.24c-1.62,0.35-1.8,1.46-1.75,2.57
				c0.04,1.11,0.26,2.38,1.8,2.19C690.26,848.14,690.33,846.84,690.27,845.8z M1037.11,852.59c-0.26-1.11-0.74-2.45-2.05-2.2
				c-0.51,0.11-0.95,1.76-0.99,2.73c-0.05,1.08,0.28,2.29,1.85,2.2C1037.24,854.81,1037.38,853.73,1037.11,852.59z M963.47,850.81
				c-1.29-2.33,1.38-7.18-2.31-7.28c-4.62-0.14-2.54,4.81-2.68,7.56c-0.14,2.65-1.36,7.41,1.99,7.48
				C965.27,858.65,962.12,853.59,963.47,850.81z M1037.11,852.59c-0.26-1.11-0.74-2.45-2.05-2.2c-0.51,0.11-0.95,1.76-0.99,2.73
				c-0.05,1.08,0.28,2.29,1.85,2.2C1037.24,854.81,1037.38,853.73,1037.11,852.59z M963.47,850.81c-1.29-2.33,1.38-7.18-2.31-7.28
				c-4.62-0.14-2.54,4.81-2.68,7.56c-0.14,2.65-1.36,7.41,1.99,7.48C965.27,858.65,962.12,853.59,963.47,850.81z M785.81,851.05
				c-0.81,0.76-1.66,1.18-1.8,1.78c-0.14,0.69,0.12,1.92,0.62,2.19c1.22,0.69,2.19,0.04,2.17-1.38
				C786.8,852.9,786.27,852.18,785.81,851.05z M729.26,843.79c-0.48-0.05-1.41,0.93-1.53,1.55c-0.28,1.36-0.42,3.02,1.57,3.26
				c0.49,0.05,1.11-0.86,1.57-1.25C730.69,845.76,731.31,844.02,729.26,843.79z M690.27,845.8c-0.04-1.02-0.04-2.35-1.48-2.24
				c-1.62,0.35-1.8,1.46-1.75,2.57c0.04,1.11,0.26,2.38,1.8,2.19C690.26,848.14,690.33,846.84,690.27,845.8z M785.81,851.05
				c-0.81,0.76-1.66,1.18-1.8,1.78c-0.14,0.69,0.12,1.92,0.62,2.19c1.22,0.69,2.19,0.04,2.17-1.38
				C786.8,852.9,786.27,852.18,785.81,851.05z M729.26,843.79c-0.48-0.05-1.41,0.93-1.53,1.55c-0.28,1.36-0.42,3.02,1.57,3.26
				c0.49,0.05,1.11-0.86,1.57-1.25C730.69,845.76,731.31,844.02,729.26,843.79z M690.27,845.8c-0.04-1.02-0.04-2.35-1.48-2.24
				c-1.62,0.35-1.8,1.46-1.75,2.57c0.04,1.11,0.26,2.38,1.8,2.19C690.26,848.14,690.33,846.84,690.27,845.8z M963.47,850.81
				c-1.29-2.33,1.38-7.18-2.31-7.28c-4.62-0.14-2.54,4.81-2.68,7.56c-0.14,2.65-1.36,7.41,1.99,7.48
				C965.27,858.65,962.12,853.59,963.47,850.81z M963.47,850.81c-1.29-2.33,1.38-7.18-2.31-7.28c-4.62-0.14-2.54,4.81-2.68,7.56
				c-0.14,2.65-1.36,7.41,1.99,7.48C965.27,858.65,962.12,853.59,963.47,850.81z M785.81,851.05c-0.81,0.76-1.66,1.18-1.8,1.78
				c-0.14,0.69,0.12,1.92,0.62,2.19c1.22,0.69,2.19,0.04,2.17-1.38C786.8,852.9,786.27,852.18,785.81,851.05z M729.26,843.79
				c-0.48-0.05-1.41,0.93-1.53,1.55c-0.28,1.36-0.42,3.02,1.57,3.26c0.49,0.05,1.11-0.86,1.57-1.25
				C730.69,845.76,731.31,844.02,729.26,843.79z M690.27,845.8c-0.04-1.02-0.04-2.35-1.48-2.24c-1.62,0.35-1.8,1.46-1.75,2.57
				c0.04,1.11,0.26,2.38,1.8,2.19C690.26,848.14,690.33,846.84,690.27,845.8z M785.81,851.05c-0.81,0.76-1.66,1.18-1.8,1.78
				c-0.14,0.69,0.12,1.92,0.62,2.19c1.22,0.69,2.19,0.04,2.17-1.38C786.8,852.9,786.27,852.18,785.81,851.05z M729.26,843.79
				c-0.48-0.05-1.41,0.93-1.53,1.55c-0.28,1.36-0.42,3.02,1.57,3.26c0.49,0.05,1.11-0.86,1.57-1.25
				C730.69,845.76,731.31,844.02,729.26,843.79z M690.27,845.8c-0.04-1.02-0.04-2.35-1.48-2.24c-1.62,0.35-1.8,1.46-1.75,2.57
				c0.04,1.11,0.26,2.38,1.8,2.19C690.26,848.14,690.33,846.84,690.27,845.8z M785.81,851.05c-0.81,0.76-1.66,1.18-1.8,1.78
				c-0.14,0.69,0.12,1.92,0.62,2.19c1.22,0.69,2.19,0.04,2.17-1.38C786.8,852.9,786.27,852.18,785.81,851.05z M729.26,843.79
				c-0.48-0.05-1.41,0.93-1.53,1.55c-0.28,1.36-0.42,3.02,1.57,3.26c0.49,0.05,1.11-0.86,1.57-1.25
				C730.69,845.76,731.31,844.02,729.26,843.79z M690.27,845.8c-0.04-1.02-0.04-2.35-1.48-2.24c-1.62,0.35-1.8,1.46-1.75,2.57
				c0.04,1.11,0.26,2.38,1.8,2.19C690.26,848.14,690.33,846.84,690.27,845.8z M785.81,851.05c-0.81,0.76-1.66,1.18-1.8,1.78
				c-0.14,0.69,0.12,1.92,0.62,2.19c1.22,0.69,2.19,0.04,2.17-1.38C786.8,852.9,786.27,852.18,785.81,851.05z M729.26,843.79
				c-0.48-0.05-1.41,0.93-1.53,1.55c-0.28,1.36-0.42,3.02,1.57,3.26c0.49,0.05,1.11-0.86,1.57-1.25
				C730.69,845.76,731.31,844.02,729.26,843.79z M690.27,845.8c-0.04-1.02-0.04-2.35-1.48-2.24c-1.62,0.35-1.8,1.46-1.75,2.57
				c0.04,1.11,0.26,2.38,1.8,2.19C690.26,848.14,690.33,846.84,690.27,845.8z M785.81,851.05c-0.81,0.76-1.66,1.18-1.8,1.78
				c-0.14,0.69,0.12,1.92,0.62,2.19c1.22,0.69,2.19,0.04,2.17-1.38C786.8,852.9,786.27,852.18,785.81,851.05z M729.26,843.79
				c-0.48-0.05-1.41,0.93-1.53,1.55c-0.28,1.36-0.42,3.02,1.57,3.26c0.49,0.05,1.11-0.86,1.57-1.25
				C730.69,845.76,731.31,844.02,729.26,843.79z M690.27,845.8c-0.04-1.02-0.04-2.35-1.48-2.24c-1.62,0.35-1.8,1.46-1.75,2.57
				c0.04,1.11,0.26,2.38,1.8,2.19C690.26,848.14,690.33,846.84,690.27,845.8z M785.81,851.05c-0.81,0.76-1.66,1.18-1.8,1.78
				c-0.14,0.69,0.12,1.92,0.62,2.19c1.22,0.69,2.19,0.04,2.17-1.38C786.8,852.9,786.27,852.18,785.81,851.05z M729.26,843.79
				c-0.48-0.05-1.41,0.93-1.53,1.55c-0.28,1.36-0.42,3.02,1.57,3.26c0.49,0.05,1.11-0.86,1.57-1.25
				C730.69,845.76,731.31,844.02,729.26,843.79z M690.27,845.8c-0.04-1.02-0.04-2.35-1.48-2.24c-1.62,0.35-1.8,1.46-1.75,2.57
				c0.04,1.11,0.26,2.38,1.8,2.19C690.26,848.14,690.33,846.84,690.27,845.8z M785.81,851.05c-0.81,0.76-1.66,1.18-1.8,1.78
				c-0.14,0.69,0.12,1.92,0.62,2.19c1.22,0.69,2.19,0.04,2.17-1.38C786.8,852.9,786.27,852.18,785.81,851.05z M729.26,843.79
				c-0.48-0.05-1.41,0.93-1.53,1.55c-0.28,1.36-0.42,3.02,1.57,3.26c0.49,0.05,1.11-0.86,1.57-1.25
				C730.69,845.76,731.31,844.02,729.26,843.79z M690.27,845.8c-0.04-1.02-0.04-2.35-1.48-2.24c-1.62,0.35-1.8,1.46-1.75,2.57
				c0.04,1.11,0.26,2.38,1.8,2.19C690.26,848.14,690.33,846.84,690.27,845.8z M729.26,843.79c-0.48-0.05-1.41,0.93-1.53,1.55
				c-0.28,1.36-0.42,3.02,1.57,3.26c0.49,0.05,1.11-0.86,1.57-1.25C730.69,845.76,731.31,844.02,729.26,843.79z M690.27,845.8
				c-0.04-1.02-0.04-2.35-1.48-2.24c-1.62,0.35-1.8,1.46-1.75,2.57c0.04,1.11,0.26,2.38,1.8,2.19
				C690.26,848.14,690.33,846.84,690.27,845.8z M729.26,843.79c-0.48-0.05-1.41,0.93-1.53,1.55c-0.28,1.36-0.42,3.02,1.57,3.26
				c0.49,0.05,1.11-0.86,1.57-1.25C730.69,845.76,731.31,844.02,729.26,843.79z M690.27,845.8c-0.04-1.02-0.04-2.35-1.48-2.24
				c-1.62,0.35-1.8,1.46-1.75,2.57c0.04,1.11,0.26,2.38,1.8,2.19C690.26,848.14,690.33,846.84,690.27,845.8z M690.27,845.8
				c-0.04-1.02-0.04-2.35-1.48-2.24c-1.62,0.35-1.8,1.46-1.75,2.57c0.04,1.11,0.26,2.38,1.8,2.19
				C690.26,848.14,690.33,846.84,690.27,845.8z M690.27,845.8c-0.04-1.02-0.04-2.35-1.48-2.24c-1.62,0.35-1.8,1.46-1.75,2.57
				c0.04,1.11,0.26,2.38,1.8,2.19C690.26,848.14,690.33,846.84,690.27,845.8z"/>
		</g>
		<g>
			<path class="st2" d="M723.59,562.61c-3.19-7.23-7.07-14.23-9.35-21.74c-2.43-7.97,5.47-0.41,5.75-3.23
				c5.71-1.66,7.79,0.74,8.69,5.2c1.11,5.45,2.75,10.77,3.72,16.24c0.34,1.78,2.82,4.95-1.16,5.57
				C728.71,565.06,725.27,566.38,723.59,562.61z"/>
			<path class="st2" d="M750.68,670.79c-3.53-6.22-2.24-12.47-2.43-18.71c-0.6-19.64,1.23-39.38-0.97-58.95
				c-1.45-12.78-7.92-18.87-18.04-18.87c-10.44-0.02-17.21,6.77-19.01,19.22c-0.32,2.31-0.09,4.69-0.26,7.04
				c-0.37,5.01-0.53,8.69,6.86,8.73c7.12,0.02,7.49-3.12,7.04-8.39c-0.19-2.29-0.26-4.87,0.56-6.93c1.55-3.86,4.67-4.51,7.53-1.46
				c3.67,3.97,1.5,22.25-3.03,24.86c-18.3,10.51-23.35,26.86-20.81,46.52c0.95,7.46,3.21,14.41,11.27,17.46
				c7.83,2.96,12.75-1.64,17.58-6.91c0.51,0.83,0.88,1.52,1.32,2.15c2.65,3.95,6.72,7.32,10.93,5.34
				C753.43,679.91,752.2,673.47,750.68,670.79z M733.29,657.74c-0.19,3.93-0.85,9.2-6.31,8.76c-4.76-0.39-4.6-5.11-4.74-8.99
				c-0.34-10.03-0.34-19.87,11.18-26.61C733.42,640.94,733.68,649.37,733.29,657.74z"/>
			<path class="st2" d="M762.62,505c-15.84-0.14-31.69-0.25-47.52,0.04c-5.55,0.11-5.15-3.07-5.13-6.74c0.05-22.01,0.02-44,0.02-66
				c0-21.71,0.18-43.41-0.11-65.12c-0.07-5.48,1.06-7.55,7.12-7.55c21.2,0,21.2-0.26,21.2,20.51c0,30.51,0.26,61.01-0.19,91.52
				c-0.11,7.25,2.26,9.36,8.83,8.32c0.85-0.12,1.75-0.02,2.63-0.02c19.66,0,19.54,0,18.22,19.96
				C767.43,503.68,766.41,505.04,762.62,505z"/>
			<path class="st2" d="M778.73,607.29c0-13.51-0.21-27.02,0.05-40.51c0.42-20.7,14.41-34.44,34.44-34.24
				c15.06,0.16,26.1,9.56,28.65,24.51c1.48,8.73,0.67,17.56,0.97,26.36c0.14,3.91-1.53,4.8-5.18,5.06
				c-17.77,1.29-17.76,1.41-17.81-16.19c0-2.05,0.09-4.11-0.07-6.15c-0.37-4.69-2.42-7.94-7.67-7.6c-4.85,0.3-6.3,3.69-6.3,7.94
				c-0.04,27.6-0.04,55.19,0,82.79c0.02,4.3,1.66,7.46,6.49,7.78c5.47,0.35,7.16-3.19,7.46-7.74c0.23-3.79,0.58-7.71-0.02-11.43
				c-1.46-9.1,2.15-11.53,10.97-10.93c14.02,0.97,11.85-1.76,12.08,12.31c0.05,3.83,0.18,7.65-0.04,11.44
				c-1.2,21.04-11.97,32.39-30.51,32.29c-19.1-0.12-32.85-13.58-33.43-33.42C778.4,635.49,778.73,621.38,778.73,607.29z"/>
			<path class="st2" d="M843.17,493.77c-5.71-39.18-11.44-78.36-16.95-117.58c-2.29-16.35-2.05-16.38-18.23-16.38
				c-2.06,0-4.16,0.28-6.17-0.05c-7.9-1.32-10.72,1.38-11.83,9.87c-5.59,42.44-12.01,84.8-18.43,127.14
				c-1.01,6.56,0.26,8.53,7.28,8.36c17.37-0.44,17.88-0.04,18.76-17.23c0.37-7.23,4.29-5.94,8.62-6.24c5.22-0.35,8.61,0.03,9.1,6.86
				c1.2,16.45,1.55,16.43,18.18,16.42C844.91,504.93,844.79,504.95,843.17,493.77z M806.75,458.98c-4.23-0.09-5.47-1.06-4.83-5.54
				c1.96-14.07,3.39-28.23,5.03-42.34c0.34,0.02,0.67,0.04,0.99,0.05c1.25,14.12,2.36,28.25,3.83,42.36
				C812.19,457.71,811.11,459.07,806.75,458.98z"/>
			<path class="st2" d="M853.38,540.06c0-2.26-0.42-5.06,3.14-5.1c6.75-0.07,13.54-0.42,20.24,0.11c5.08,0.41,2.96,5.03,2.96,7.76
				c0.16,33.17,0.11,66.36,0.11,99.54c0,2.05-0.05,4.11,0.02,6.15c0.14,3.95,0.44,8.22,5.63,8.36c5.78,0.18,6.1-4.21,6.1-8.61
				c-0.02-34.35,0.3-68.72-0.23-103.05c-0.14-8.53,1.99-10.97,10.54-10.54c14.94,0.78,14.95,0.21,14.95,15.61v47.56
				c0,17.33,0.07,34.65-0.02,51.98c-0.09,18.85-11.5,32.18-28.18,33.12c-19.59,1.09-34.12-10.3-34.67-30.17
				C852.9,615.23,853.47,577.63,853.38,540.06z"/>
			<path class="st2" d="M948.41,450.76c-0.02-8.39-3.26-15.24-11.69-19.38c8.02-4.27,11.53-10.77,11.62-18.96
				c0.12-9.95,0.34-19.94-0.49-29.84c-1.16-13.81-9.59-21.8-23.49-22.45c-12.29-0.56-24.62-0.14-36.92-0.41
				c-3.72-0.07-5.06,0.95-5.04,4.88c0.12,45.14,0.11,90.28,0,135.44c-0.02,3.84,1.15,5.03,4.97,4.96
				c12.61-0.26,25.23,0.21,37.81-0.37c12.82-0.58,21.53-8.73,22.59-21.41C948.67,472.47,948.44,461.59,948.41,450.76z
				 M921.51,475.99c-0.02,4.94-3.37,5.36-7.21,5.47c-5.17,0.14-3.47-3.67-3.58-6.17c-0.21-4.67-0.07-9.38-0.07-14.07
				c0-4.39-0.09-8.8,0.04-13.19c0.07-2.35-1.16-5.59,3.4-5.41c3.76,0.14,7.34,0.25,7.39,5.24
				C921.57,457.23,921.53,466.61,921.51,475.99z M921.53,415.81c0.04,4.74-2.79,5.61-6.82,5.77c-4.85,0.21-4-3-4.04-5.78
				c-0.05-4.66-0.02-9.33-0.02-13.98c0-4.09,0.02-8.16,0-12.26c0-2.89-0.62-5.98,4.13-5.73c3.93,0.21,6.86,0.83,6.77,5.75
				C921.41,398.32,921.48,407.06,921.53,415.81z"/>
			<path class="st2" d="M930.05,607.75c0-22.02,0.16-44.03-0.12-66.06c-0.05-5.25,1.15-6.95,6.75-6.95
				c19.52-0.04,19.52-0.28,19.52,18.87c0,39.62-0.16,79.26,0.16,118.89c0.05,6.59-1.62,8.43-8.27,8.29
				c-18.04-0.35-18.04-0.02-18.04-18.45V607.75z"/>
			<path class="st2" d="M1030.24,432.24c0-13.51,0.05-27-0.02-40.49c-0.09-20.19-13.26-33.73-33.28-34.32
				c-21.39-0.62-36.22,11.97-36.64,32.68c-0.6,28.44-0.63,56.92,0.05,85.35c0.48,19.87,16.06,33.08,36.27,32.41
				c19.77-0.65,33.45-14.55,33.59-34.28C1030.31,459.81,1030.24,446.02,1030.24,432.24z M1001.52,432.53c0,13.51,0.02,27.02,0,40.52
				c-0.02,4.3-0.3,8.68-6.14,8.69c-5.63,0.04-6.38-3.93-6.37-8.48c0.05-27.3,0.04-54.59,0.02-81.89c0-4.55,0.92-8.5,6.58-8.31
				c5.1,0.18,5.91,3.91,5.91,8.08C1001.5,404.93,1001.52,418.74,1001.52,432.53z"/>
			<path class="st2" d="M966.76,647.08c1.15-3.12-2.5-9.26,1.94-10.47c5.98-1.66,12.78-0.51,19.22-0.25
				c1.69,0.05,1.76,2.03,1.76,3.53c0,2.05,0.04,4.11,0,6.17c-0.09,6.35-0.3,13.98,8.59,12.94c8.55-0.99,6.98-8.68,6.08-14.79
				c-1.32-9.06-6.79-16.1-12.03-23.14c-7.02-9.4-14.58-18.41-19.59-29.15c-5.24-11.29-7.05-22.89-3.9-35.11
				c4.25-16.4,16.86-25.32,34.03-23.98c14.41,1.11,24.44,12.13,25.94,28.5c0.05,0.58,0.11,1.16,0.14,1.76
				c1.02,16.73-2.15,19.41-18.97,16.54c-3.02-0.51-3.97-1.69-3.86-4.53c0.12-3.53,0.09-7.05,0-10.58c-0.12-3.88-1.38-6.98-5.94-7.21
				c-4.88-0.23-6.98,2.84-7.3,7.05c-0.6,7.94,2.15,14.99,6.65,21.39c6.93,9.82,14.18,19.43,20.81,29.45
				c6.4,9.66,10.4,20.24,10.25,32.16c-0.32,21.8-12.96,35.71-32.66,35.62C977.71,682.87,966.97,670.72,966.76,647.08z"/>
			<path class="st2" d="M1041.11,606.85c0-21.72,0.18-43.45-0.11-65.17c-0.07-5.29,1.18-6.93,6.75-6.93
				c19.8-0.04,19.8-0.28,19.8,19.33c0,39.62-0.14,79.26,0.14,118.89c0.04,6.07-1.39,7.92-7.67,7.83
				c-18.9-0.26-18.92,0.02-18.92-18.46V606.85z"/>
			<path class="st2" d="M1064.68,505.09c-21.51,0.07-21.51,0.26-21.51-21.18c0-38.71,0.18-77.43-0.18-116.14
				c-0.07-6.79,1.9-8.23,8.34-8.13c20.03,0.3,20.05,0.02,20.05,19.87v52.78c0,22.01-0.19,44,0.12,65.99
				C1071.6,503.78,1070.06,505.07,1064.68,505.09z"/>
			<path class="st2" d="M1057.84,339.61c-6.01,11.14-11.5,14.69-19.47,12.4c-1.78-0.51-4.28-0.3-4.32-3.37
				c-0.04-2.43,0.02-4.18,3.02-5.34c6.19-2.42,9.43-7.83,11.09-13.93c1.32-4.88,3.47-7.28,8.99-6.72c4.9,0.48,9.59-0.76,11.21,6.4
				c1.32,5.92,4.67,11.48,10.93,14.09c2.54,1.06,3.58,2.63,3.23,5.4c-0.42,3.33-3.17,3.09-5.27,3.6
				C1068.97,354.11,1063.73,350.67,1057.84,339.61z"/>
			<path class="st2" d="M1103.74,616.15c-0.05,19.1-0.23,38.19,0.09,57.27c0.09,5.77-1.59,7.44-7.42,7.35
				c-15.64-0.19-15.64,0.11-15.64-15.73c0-40.54,0.16-81.06-0.18-121.6c-0.05-6.97,1.83-8.94,8.78-8.71
				c15.22,0.48,15.24,0.09,19.2,14.97c5.17,19.45,10.3,38.9,15.46,58.35c0.46-0.11,0.93-0.21,1.39-0.34
				c0-21.72,0.23-43.47-0.14-65.19c-0.11-6.21,1.64-7.9,7.81-7.78c15.25,0.32,15.25,0,15.25,15.22c0,40.84-0.16,81.66,0.16,122.48
				c0.05,6.54-1.5,8.57-8.23,8.34c-13.7-0.46-13.7-0.05-17.42-13c-5.64-19.57-11.29-39.15-18.55-58.67
				C1104.11,611.47,1103.74,613.8,1103.74,616.15z"/>
			<path class="st2" d="M1148.67,367.02c-0.18,1.16-0.02,2.35-0.02,3.53c0,14.37,0,14.74-14.2,14.95c-6.08,0.09-5.54,3.3-5.52,7.25
				c0.04,34.65-0.14,69.32,0.18,103.97c0.05,6.37-1.23,8.53-8.09,8.41c-20.26-0.33-20.26,0-20.26-20.6v-39.64
				c0-17.33-0.26-34.67,0.14-51.98c0.12-5.94-1.78-8.01-7.48-7.28c-2.31,0.3-4.71-0.12-7.04,0.09c-4.09,0.37-5.48-1.13-5.75-5.41
				c-1.23-20.51-1.38-20.49,18.73-20.49c14.11,0,28.21,0.32,42.29-0.16C1147.67,359.45,1149.52,361.5,1148.67,367.02z"/>
			<path class="st2" d="M1216.4,502c0.05,3.65-3,2.91-5.18,2.91c-15.83,0.05-31.69-0.19-47.52,0.14c-5.5,0.12-6.07-2.27-6.03-6.79
				c0.18-22.01,0.09-44,0.09-66c0-21.71,0.18-43.41-0.12-65.12c-0.07-5.54,1.13-7.65,7.18-7.48c15.24,0.44,30.51,0.28,45.76,0.05
				c4.53-0.07,5.92,1.22,6.08,5.89c0.67,19.19,0.85,19.17-18.15,19.17c-12.84,0-12.84,0-12.84,12.75c0,1.46-0.02,2.93,0,4.41
				c0.09,5.25-1.6,11.66,0.79,15.48c2.73,4.32,9.63,1.27,14.67,1.62c3.17,0.23,5.1,0.95,4.83,4.51c-0.09,1.16-0.02,2.35,0,3.51
				c0.14,14.46,0.16,14.64-14.46,14.92c-4.44,0.07-6.17,1.06-5.94,5.84c0.39,8.48,0.39,17.02,0,25.52
				c-0.23,4.76,1.48,6.24,5.94,5.78c2.63-0.26,5.31-0.25,7.92,0c5.45,0.48,13.31-2.73,15.85,1.39
				C1218.93,486.45,1216.32,494.72,1216.4,502z"/>
			<path class="st2" d="M1187.36,570.19c0.44,2.26,0.04,4.69,0.07,7.04c0.11,5.27-1.53,11.64,0.85,15.5
				c2.43,3.92,9.22,1.09,14.07,1.46c2.84,0.19,4.41,0.99,4.2,4.09c-0.14,2.05-0.02,4.11-0.02,6.17c0,12.71,0,12.94-12.75,12.89
				c-4.76-0.04-7.19,0.93-6.38,6.17c0.26,1.71,0.02,3.51,0.04,5.27c0.11,8.2-2.73,18.52,1.18,23.96c3.77,5.24,14.74,1.43,22.54,1.59
				c4.27,0.09,5.31,1.41,5.5,5.55c0.93,20.74,1.08,20.74-19.43,20.74c-9.4,0-18.82-0.37-28.2,0.12c-6.12,0.32-8.01-1.46-7.9-7.74
				c0.41-21.72,0.16-43.47,0.16-65.21c0-22.02,0.16-44.05-0.12-66.07c-0.07-5.38,1.38-7.11,6.89-6.97
				c14.07,0.39,28.18,0.26,42.29,0.05c4.34-0.07,6.1,0.9,6.33,5.73c0.93,19.63,1.09,20.05-18.82,19.43
				C1189.72,559.74,1185.69,561.31,1187.36,570.19z"/>
			<path class="st2" d="M681.43,303.31c22.69-10.42,45.88-19.36,69.94-26.05c43.15-12.01,87.32-17.56,131.79-21.14
				c11.59-0.93,23.19-1.64,34.77-2.47c-10.1-6.91-21.14-10.99-30.58-17.99c-13.77-10.19-12.82-23.44,2.45-31.69
				c10.51-5.68,22.11-7.74,33.84-8.68c31.07-2.43,62.14-3.33,92.95,2.65c8.09,1.57,15.98,4.11,22.39,9.61
				c9.61,8.27,9.47,18.09-0.37,26.01c-10.35,8.34-22.82,12.91-34.58,20c11.69,0.85,23.38,1.6,35.07,2.56
				c54.21,4.37,107.87,11.6,159.5,29.8c14.37,5.08,28.27,11.27,42.22,17.42c7.86,3.47,5.5,9.56,5.27,14.9
				c-0.25,6.24-5.68,3.35-8.92,3.76c-18.22,2.27-35.14-2.8-52.34-8.27c-51.42-16.35-104.48-23.96-158.16-27.72
				c-57.22-3.99-114.37-3-171.35,3.67c-45.81,5.34-91.03,13.81-134.56,29.5c-13.6,4.92-27.31,1.87-40.95,2.82
				c-3.37,0.23-3.86-2.12-3.58-4.64C676.83,312.32,673.97,306.74,681.43,303.31z"/>
			<path class="st2" d="M1487.12,464.11c-38.34-12.87-76.67-25.74-115.01-38.6c-7.79-2.61-15.75-4.78-23.35-7.83
				c-5.7-2.26-6.65-0.11-6.24,4.85c0.21,2.63,0.04,5.27,0.04,7.92c0,121.62-0.09,243.22,0.21,364.84c0.02,8.01-2.22,9.47-9.73,9.47
				c-247.35-0.19-494.71-0.21-742.06,0.05c-8.57,0-9.86-2.84-9.84-10.4c0.21-122.8,0.16-245.59,0.16-368.37
				c0-10.37-0.02-10.35-9.68-7.16c-43.68,14.42-87.38,28.85-131.09,43.26c-2.17,0.71-4.43,1.2-7.58,2.05
				c0-15.18,0.11-29.75-0.05-44.33c-0.07-5.26,4.23-5.13,7.19-6.17c41.21-14.44,82.49-28.73,123.74-43.04
				c30.74-10.67,61.58-21.02,92.12-32.22c8.04-2.94,9.08-1.18,9.08,6.49c-0.19,119.86-0.14,239.7-0.14,359.55
				c0,11.71,0.02,11.71,11.6,11.71c190.66,0,381.33-0.05,571.99,0.19c8.45,0,11.25-1.41,11.21-10.76
				c-0.39-119.56-0.26-239.11-0.21-358.67c0-3.42-0.81-6.98,1.06-10.95c25.75,8.96,51.44,17.93,77.13,26.86
				c49.82,17.32,99.65,34.62,149.46,51.91c-4.13,2.59-8.04,0.49-11.8-0.83c-52.34-18.53-104.89-36.47-157.2-55.02
				c-15.24-5.4-30.56-10.53-45.76-16.01c-9.54-3.46-9.89-3.12-9.89,6.91c-0.04,43.78-0.02,87.55-0.02,131.32v216.81
				c0,2.05,0.02,4.11-0.02,6.17c-0.23,12.91-1.94,14.74-14.94,14.76c-56.11,0.11-112.22,0.05-168.33,0.05H682.54
				c-19.15,0-19.66-0.53-19.66-19.8c0-106.07-0.04-212.12,0.07-318.17c0-10.85-1.04-21.67-0.3-32.57c0.51-7.69-1.5-8.85-8.94-6.24
				c-67.38,23.59-134.79,47.06-202.26,70.34c-2.22,0.76-4.34,1.87-6.6,2.49c-6.65,1.82-9.58,5.92-9.26,12.91
				c0.34,7.34-0.02,14.69,0.11,22.02c0.14,9.49,0.92,10.02,10.44,7.28c21.48-6.14,42.46-13.77,63.68-20.74
				c19.54-6.42,39.01-13.05,58.54-19.45c12.5-4.09,15.31-2.12,15.32,11.22c0.14,68.44,0.05,136.89,0.05,205.34
				c0.02,51.4,0,102.82,0.02,154.22c0.02,13.49,0.3,13.77,13.82,13.79h728.01c13.97,0,14.21-0.26,14.21-14.32
				c0.02-117.81,0-235.6,0.02-353.42c0-20.83,1.13-21.62,20.95-15.02c37.91,12.63,75.83,25.23,113.7,37.93
				C1479.16,458.31,1484.33,459.19,1487.12,464.11z"/>
			<path class="st3" d="M1487.12,414.75v49.36c-38.34-12.87-76.67-25.74-115.01-38.6c-7.79-2.61-15.75-4.78-23.35-7.83
				c-5.7-2.26-6.65-0.11-6.24,4.85c0.21,2.63,0.04,5.27,0.04,7.92c0,121.62-0.09,243.22,0.21,364.84c0.02,8.01-2.22,9.47-9.73,9.47
				c-247.35-0.19-494.71-0.21-742.06,0.05c-8.57,0-9.86-2.84-9.84-10.4c0.21-122.8,0.16-245.59,0.16-368.37
				c0-10.37-0.02-10.35-9.68-7.16c-43.68,14.42-87.38,28.85-131.09,43.26c-2.17,0.71-4.43,1.2-7.58,2.05
				c0-15.18,0.11-29.75-0.05-44.33c-0.07-5.26,4.23-5.13,7.19-6.17c41.21-14.44,82.49-28.73,123.74-43.04
				c30.74-10.67,61.58-21.02,92.12-32.22c8.04-2.94,9.08-1.18,9.08,6.49c-0.19,119.86-0.14,239.7-0.14,359.55
				c0,11.71,0.02,11.71,11.6,11.71c190.66,0,381.33-0.05,571.99,0.19c8.45,0,11.25-1.41,11.21-10.76
				c-0.39-119.56-0.26-239.11-0.21-358.67c0-3.42-0.81-6.98,1.06-10.95c25.75,8.96,51.44,17.93,77.13,26.86
				C1387.47,380.15,1437.3,397.45,1487.12,414.75z"/>
			<path class="st3" d="M1246.1,318.24c-0.25,6.24-5.68,3.35-8.92,3.76c-18.22,2.27-35.14-2.8-52.34-8.27
				c-51.42-16.35-104.48-23.96-158.16-27.72c-57.22-3.99-114.37-3-171.35,3.67c-45.81,5.34-91.03,13.81-134.56,29.5
				c-13.6,4.92-27.31,1.87-40.95,2.82c-3.37,0.23-3.86-2.12-3.58-4.64c0.58-5.04-2.27-10.62,5.18-14.05
				c22.69-10.42,45.88-19.36,69.94-26.05c43.15-12.01,87.32-17.56,131.79-21.14c11.59-0.93,23.19-1.64,34.77-2.47
				c-10.1-6.91-21.14-10.99-30.58-17.99c-13.77-10.19-12.82-23.44,2.45-31.69c10.51-5.68,22.11-7.74,33.84-8.68
				c31.07-2.43,62.14-3.33,92.95,2.65c8.09,1.57,15.98,4.11,22.39,9.61c9.61,8.27,9.47,18.09-0.37,26.01
				c-10.35,8.34-22.82,12.91-34.58,20c11.69,0.85,23.38,1.6,35.07,2.56c54.21,4.37,107.87,11.6,159.5,29.8
				c14.37,5.08,28.27,11.27,42.22,17.42C1248.69,306.82,1246.33,312.9,1246.1,318.24z"/>
			<path class="st4" d="M948.41,450.76c-0.02-8.39-3.26-15.24-11.69-19.38c8.02-4.27,11.53-10.77,11.62-18.96
				c0.12-9.95,0.34-19.94-0.49-29.84c-1.16-13.81-9.59-21.8-23.49-22.45c-12.29-0.56-24.62-0.14-36.92-0.41
				c-3.72-0.07-5.06,0.95-5.04,4.88c0.12,45.14,0.11,90.28,0,135.44c-0.02,3.84,1.15,5.03,4.97,4.96
				c12.61-0.26,25.23,0.21,37.81-0.37c12.82-0.58,21.53-8.73,22.59-21.41C948.67,472.47,948.44,461.59,948.41,450.76z
				 M921.51,475.99c-0.02,4.94-3.37,5.36-7.21,5.47c-5.17,0.14-3.47-3.67-3.58-6.17c-0.21-4.67-0.07-9.38-0.07-14.07
				c0-4.39-0.09-8.8,0.04-13.19c0.07-2.35-1.16-5.59,3.4-5.41c3.76,0.14,7.34,0.25,7.39,5.24
				C921.57,457.23,921.53,466.61,921.51,475.99z M921.53,415.81c0.04,4.74-2.79,5.61-6.82,5.77c-4.85,0.21-4-3-4.04-5.78
				c-0.05-4.66-0.02-9.33-0.02-13.98c0-4.09,0.02-8.16,0-12.26c0-2.89-0.62-5.98,4.13-5.73c3.93,0.21,6.86,0.83,6.77,5.75
				C921.41,398.32,921.48,407.06,921.53,415.81z"/>
			<path class="st4" d="M1148.51,672.45c0.05,6.54-1.5,8.57-8.23,8.34c-13.7-0.46-13.7-0.05-17.42-13
				c-5.64-19.57-11.29-39.15-18.55-58.67c-0.19,2.35-0.56,4.67-0.56,7.02c-0.05,19.1-0.23,38.19,0.09,57.27
				c0.09,5.77-1.59,7.44-7.42,7.35c-15.64-0.19-15.64,0.11-15.64-15.73c0-40.54,0.16-81.06-0.18-121.6
				c-0.05-6.97,1.83-8.94,8.78-8.71c15.22,0.48,15.24,0.09,19.2,14.97c5.17,19.45,10.3,38.9,15.46,58.35
				c0.46-0.11,0.93-0.21,1.39-0.34c0-21.72,0.23-43.47-0.14-65.19c-0.11-6.21,1.64-7.9,7.81-7.78c15.25,0.32,15.25,0,15.25,15.22
				C1148.36,590.81,1148.2,631.63,1148.51,672.45z"/>
			<path class="st4" d="M1030.24,432.24c0-13.51,0.05-27-0.02-40.49c-0.09-20.19-13.26-33.73-33.28-34.32
				c-21.39-0.62-36.22,11.97-36.64,32.68c-0.6,28.44-0.63,56.92,0.05,85.35c0.48,19.87,16.06,33.08,36.27,32.41
				c19.77-0.65,33.45-14.55,33.59-34.28C1030.31,459.81,1030.24,446.02,1030.24,432.24z M1001.52,432.53c0,13.51,0.02,27.02,0,40.52
				c-0.02,4.3-0.3,8.68-6.14,8.69c-5.63,0.04-6.38-3.93-6.37-8.48c0.05-27.3,0.04-54.59,0.02-81.89c0-4.55,0.92-8.5,6.58-8.31
				c5.1,0.18,5.91,3.91,5.91,8.08C1001.5,404.93,1001.52,418.74,1001.52,432.53z"/>
			<path class="st4" d="M916.82,649.83c-0.09,18.85-11.5,32.18-28.18,33.12c-19.59,1.09-34.12-10.3-34.67-30.17
				c-1.08-37.54-0.51-75.14-0.6-112.71c0-2.26-0.42-5.06,3.14-5.1c6.75-0.07,13.54-0.42,20.24,0.11c5.08,0.41,2.96,5.03,2.96,7.76
				c0.16,33.17,0.11,66.36,0.11,99.54c0,2.05-0.05,4.11,0.02,6.15c0.14,3.95,0.44,8.22,5.63,8.36c5.78,0.18,6.1-4.21,6.1-8.61
				c-0.02-34.35,0.3-68.72-0.23-103.05c-0.14-8.53,1.99-10.97,10.54-10.54c14.94,0.78,14.95,0.21,14.95,15.61v47.56
				C916.84,615.18,916.91,632.49,916.82,649.83z"/>
			<path class="st4" d="M843.17,493.77c-5.71-39.18-11.44-78.36-16.95-117.58c-2.29-16.35-2.05-16.38-18.23-16.38
				c-2.06,0-4.16,0.28-6.17-0.05c-7.9-1.32-10.72,1.38-11.83,9.87c-5.59,42.44-12.01,84.8-18.43,127.14
				c-1.01,6.56,0.26,8.53,7.28,8.36c17.37-0.44,17.88-0.04,18.76-17.23c0.37-7.23,4.29-5.94,8.62-6.24c5.22-0.35,8.61,0.03,9.1,6.86
				c1.2,16.45,1.55,16.43,18.18,16.42C844.91,504.93,844.79,504.95,843.17,493.77z M806.75,458.98c-4.23-0.09-5.47-1.06-4.83-5.54
				c1.96-14.07,3.39-28.23,5.03-42.34c0.34,0.02,0.67,0.04,0.99,0.05c1.25,14.12,2.36,28.25,3.83,42.36
				C812.19,457.71,811.11,459.07,806.75,458.98z"/>
			<path class="st4" d="M842.76,650.69c-1.2,21.04-11.97,32.39-30.51,32.29c-19.1-0.12-32.85-13.58-33.43-33.42
				c-0.42-14.07-0.09-28.18-0.09-42.27c0-13.51-0.21-27.02,0.05-40.51c0.42-20.7,14.41-34.44,34.44-34.24
				c15.06,0.16,26.1,9.56,28.65,24.51c1.48,8.73,0.67,17.56,0.97,26.36c0.14,3.91-1.53,4.8-5.18,5.06
				c-17.77,1.29-17.76,1.41-17.81-16.19c0-2.05,0.09-4.11-0.07-6.15c-0.37-4.69-2.42-7.94-7.67-7.6c-4.85,0.3-6.3,3.69-6.3,7.94
				c-0.04,27.6-0.04,55.19,0,82.79c0.02,4.3,1.66,7.46,6.49,7.78c5.47,0.35,7.16-3.19,7.46-7.74c0.23-3.79,0.58-7.71-0.02-11.43
				c-1.46-9.1,2.15-11.53,10.97-10.93c14.02,0.97,11.85-1.76,12.08,12.31C842.85,643.07,842.97,646.9,842.76,650.69z"/>
			<path class="st4" d="M1030.58,647.36c-0.32,21.8-12.96,35.71-32.66,35.62c-20.21-0.11-30.95-12.26-31.16-35.9
				c1.15-3.12-2.5-9.26,1.94-10.47c5.98-1.66,12.78-0.51,19.22-0.25c1.69,0.05,1.76,2.03,1.76,3.53c0,2.05,0.04,4.11,0,6.17
				c-0.09,6.35-0.3,13.98,8.59,12.94c8.55-0.99,6.98-8.68,6.08-14.79c-1.32-9.06-6.79-16.1-12.03-23.14
				c-7.02-9.4-14.58-18.41-19.59-29.15c-5.24-11.29-7.05-22.89-3.9-35.11c4.25-16.4,16.86-25.32,34.03-23.98
				c14.41,1.11,24.44,12.13,25.94,28.5c0.05,0.58,0.11,1.16,0.14,1.76c1.02,16.73-2.15,19.41-18.97,16.54
				c-3.02-0.51-3.97-1.69-3.86-4.53c0.12-3.53,0.09-7.05,0-10.58c-0.12-3.88-1.38-6.98-5.94-7.21c-4.88-0.23-6.98,2.84-7.3,7.05
				c-0.6,7.94,2.15,14.99,6.65,21.39c6.93,9.82,14.18,19.43,20.81,29.45C1026.74,624.86,1030.74,635.44,1030.58,647.36z"/>
			<path class="st4" d="M1216.4,502c0.05,3.65-3,2.91-5.18,2.91c-15.83,0.05-31.69-0.19-47.52,0.14c-5.5,0.12-6.07-2.27-6.03-6.79
				c0.18-22.01,0.09-44,0.09-66c0-21.71,0.18-43.41-0.12-65.12c-0.07-5.54,1.13-7.65,7.18-7.48c15.24,0.44,30.51,0.28,45.76,0.05
				c4.53-0.07,5.92,1.22,6.08,5.89c0.67,19.19,0.85,19.17-18.15,19.17c-12.84,0-12.84,0-12.84,12.75c0,1.46-0.02,2.93,0,4.41
				c0.09,5.25-1.6,11.66,0.79,15.48c2.73,4.32,9.63,1.27,14.67,1.62c3.17,0.23,5.1,0.95,4.83,4.51c-0.09,1.16-0.02,2.35,0,3.51
				c0.14,14.46,0.16,14.64-14.46,14.92c-4.44,0.07-6.17,1.06-5.94,5.84c0.39,8.48,0.39,17.02,0,25.52
				c-0.23,4.76,1.48,6.24,5.94,5.78c2.63-0.26,5.31-0.25,7.92,0c5.45,0.48,13.31-2.73,15.85,1.39
				C1218.93,486.45,1216.32,494.72,1216.4,502z"/>
			<path class="st4" d="M1216.65,659.9c0.93,20.74,1.08,20.74-19.43,20.74c-9.4,0-18.82-0.37-28.2,0.12
				c-6.12,0.32-8.01-1.46-7.9-7.74c0.41-21.72,0.16-43.47,0.16-65.21c0-22.02,0.16-44.05-0.12-66.07c-0.07-5.38,1.38-7.11,6.89-6.97
				c14.07,0.39,28.18,0.26,42.29,0.05c4.34-0.07,6.1,0.9,6.33,5.73c0.93,19.63,1.09,20.05-18.82,19.43
				c-8.13-0.25-12.17,1.32-10.49,10.21c0.44,2.26,0.04,4.69,0.07,7.04c0.11,5.27-1.53,11.64,0.85,15.5
				c2.43,3.92,9.22,1.09,14.07,1.46c2.84,0.19,4.41,0.99,4.2,4.09c-0.14,2.05-0.02,4.11-0.02,6.17c0,12.71,0,12.94-12.75,12.89
				c-4.76-0.04-7.19,0.93-6.38,6.17c0.26,1.71,0.02,3.51,0.04,5.27c0.11,8.2-2.73,18.52,1.18,23.96c3.77,5.24,14.74,1.43,22.54,1.59
				C1215.42,654.43,1216.46,655.75,1216.65,659.9z"/>
			<path class="st4" d="M1148.67,367.02c-0.18,1.16-0.02,2.35-0.02,3.53c0,14.37,0,14.74-14.2,14.95c-6.08,0.09-5.54,3.3-5.52,7.25
				c0.04,34.65-0.14,69.32,0.18,103.97c0.05,6.37-1.23,8.53-8.09,8.41c-20.26-0.33-20.26,0-20.26-20.6v-39.64
				c0-17.33-0.26-34.67,0.14-51.98c0.12-5.94-1.78-8.01-7.48-7.28c-2.31,0.3-4.71-0.12-7.04,0.09c-4.09,0.37-5.48-1.13-5.75-5.41
				c-1.23-20.51-1.38-20.49,18.73-20.49c14.11,0,28.21,0.32,42.29-0.16C1147.67,359.45,1149.52,361.5,1148.67,367.02z"/>
			<path class="st4" d="M767.68,499.92c-0.25,3.76-1.27,5.11-5.06,5.08c-15.84-0.14-31.69-0.25-47.52,0.04
				c-5.55,0.11-5.15-3.07-5.13-6.74c0.05-22.01,0.02-44,0.02-66c0-21.71,0.18-43.41-0.11-65.12c-0.07-5.48,1.06-7.55,7.12-7.55
				c21.2,0,21.2-0.26,21.2,20.51c0,30.51,0.26,61.01-0.19,91.52c-0.11,7.25,2.26,9.36,8.83,8.32c0.85-0.12,1.75-0.02,2.63-0.02
				C769.12,479.96,769,479.96,767.68,499.92z"/>
			<path class="st4" d="M1071.51,498.28c0.09,5.5-1.45,6.79-6.82,6.81c-21.51,0.07-21.51,0.26-21.51-21.18
				c0-38.71,0.18-77.43-0.18-116.14c-0.07-6.79,1.9-8.23,8.34-8.13c20.03,0.3,20.05,0.02,20.05,19.87v52.78
				C1071.38,454.3,1071.19,476.29,1071.51,498.28z"/>
			<path class="st4" d="M956.36,672.5c0.05,6.59-1.62,8.43-8.27,8.29c-18.04-0.35-18.04-0.02-18.04-18.45v-54.59
				c0-22.02,0.16-44.03-0.12-66.06c-0.05-5.25,1.15-6.95,6.75-6.95c19.52-0.04,19.52-0.28,19.52,18.87
				C956.2,593.24,956.04,632.88,956.36,672.5z"/>
			<path class="st4" d="M1067.7,672.96c0.04,6.07-1.39,7.92-7.67,7.83c-18.9-0.26-18.92,0.02-18.92-18.46v-55.48
				c0-21.72,0.18-43.45-0.11-65.17c-0.07-5.29,1.18-6.93,6.75-6.93c19.8-0.04,19.8-0.28,19.8,19.33
				C1067.56,593.7,1067.42,633.34,1067.7,672.96z"/>
			<path class="st4" d="M750.68,670.79c-3.53-6.22-2.24-12.47-2.43-18.71c-0.6-19.64,1.23-39.38-0.97-58.95
				c-1.45-12.78-7.92-18.87-18.04-18.87c-10.44-0.02-17.21,6.77-19.01,19.22c-0.32,2.31-0.09,4.69-0.26,7.04
				c-0.37,5.01-0.53,8.69,6.86,8.73c7.12,0.02,7.49-3.12,7.04-8.39c-0.19-2.29-0.26-4.87,0.56-6.93c1.55-3.86,4.67-4.51,7.53-1.46
				c3.67,3.97,1.5,22.25-3.03,24.86c-18.3,10.51-23.35,26.86-20.81,46.52c0.95,7.46,3.21,14.41,11.27,17.46
				c7.83,2.96,12.75-1.64,17.58-6.91c0.51,0.83,0.88,1.52,1.32,2.15c2.65,3.95,6.72,7.32,10.93,5.34
				C753.43,679.91,752.2,673.47,750.68,670.79z M733.29,657.74c-0.19,3.93-0.85,9.2-6.31,8.76c-4.76-0.39-4.6-5.11-4.74-8.99
				c-0.34-10.03-0.34-19.87,11.18-26.61C733.42,640.94,733.68,649.37,733.29,657.74z"/>
			<path class="st5" d="M1082.53,348.54c-0.42,3.33-3.17,3.09-5.27,3.6c-8.29,1.98-13.52-1.46-19.41-12.52
				c-6.01,11.14-11.5,14.69-19.47,12.4c-1.78-0.51-4.28-0.3-4.32-3.37c-0.04-2.43,0.02-4.18,3.02-5.34
				c6.19-2.42,9.43-7.83,11.09-13.93c1.32-4.88,3.47-7.28,8.99-6.72c4.9,0.48,9.59-0.76,11.21,6.4c1.32,5.92,4.67,11.48,10.93,14.09
				C1081.84,344.2,1082.88,345.77,1082.53,348.54z"/>
			<path class="st6" d="M731.25,564.66c-2.54,0.41-5.98,1.73-7.65-2.05c-3.19-7.23-7.07-14.23-9.35-21.74
				c-2.43-7.97,5.47-0.41,5.75-3.23c5.71-1.66,7.79,0.74,8.69,5.2c1.11,5.45,2.75,10.77,3.72,16.24
				C732.75,560.86,735.23,564.04,731.25,564.66z"/>
			<path class="st2" d="M1011.42,761c0,23-13.43,33.51-33.25,25.82c-16.33-6.33-12.22-20.75-12.48-33.15
				c-0.2-9.87,4.93-16.6,13.52-19.35C999.05,727.98,1011.42,738.22,1011.42,761z"/>
			<path class="st2" d="M1176.58,762.72c0-23.85,9.72-32.7,29.92-28.94c1.7,0.32,3.41,0.87,4.99,1.59
				c7.84,3.56,11.41,9.97,11.13,18.3c-0.39,11.6,3.67,25.06-10.17,32.07c-9.11,4.61-18.85,4.45-27.7-1.16
				C1175.96,779,1176.26,769.88,1176.58,762.72z"/>
			<path class="st2" d="M898.12,786.06c-2.97,1.64-6.28,0.51-9.42,0.92c-7.17,0.94-10.6-1.92-9.79-9.33c0.13-1.16,0.05-2.35,0-3.52
				c-0.1-2.64,0.01-6.11-3.47-5.98c-3.35,0.13-1.61,3.65-2.06,5.68c-0.19,0.84-0.03,1.75-0.03,2.64
				c-0.05,9.34-8.44,14.28-17.29,10.32c-2.63-1.17-2.04-3.28-2.05-5.17c-0.06-14.09,0.03-28.19-0.08-42.28
				c-0.03-3.57,0.95-5.48,4.94-5.3c8.78,0.41,17.63-0.79,26.35,0.99c10.92,2.22,15.66,13.39,9.98,23.1c-0.8,1.37-4,2.18-2.48,3.75
				c3.36,3.49,4.28,7.29,4.21,11.92C896.88,777.85,897.69,781.92,898.12,786.06z"/>
			<path class="st2" d="M1272.32,756.55c0,4.11,0.04,8.23-0.01,12.34c-0.17,13.63-6.54,19.47-21.29,19.56
				c-16.16,0.1-23.1-5.64-23.3-19.48c-0.14-9.4,0.15-18.81-0.1-28.2c-0.12-4.63,0.83-6.77,6.21-6.83
				c13.26-0.14,13.25-0.45,13.25,12.96c0,7.05-0.04,14.1,0.03,21.15c0.03,2.55-0.48,5.91,3.31,6.04c4.36,0.14,3.96-3.46,3.97-6.36
				c0.04-9.11,0.48-18.25-0.12-27.31c-0.54-8.18,4.86-6.17,9.19-6.3c4.62-0.14,9.76-1.21,8.95,6.6
				C1271.88,745.93,1272.32,751.26,1272.32,756.55z"/>
			<path class="st2" d="M1061.24,756.2c0,4.68,0.1,9.37-0.01,14.05c-0.29,11.66-6.65,17.7-18.99,18.18
				c-16,0.63-24.68-4.57-25.46-16.34c-0.73-11.08-0.21-22.24-0.38-33.36c-0.05-3.29,1.08-4.87,4.54-4.68
				c3.21,0.17,6.46,0.26,9.66-0.03c4.51-0.4,5.36,1.84,5.29,5.76c-0.19,9.37-0.08,18.74-0.04,28.11c0.01,2.96-0.14,6.48,4.15,6.18
				c3.72-0.26,3.12-3.63,3.14-6.17c0.06-9.37,0.34-18.75-0.08-28.1c-0.3-6.8,4.12-6.08,8.06-5.61c3.88,0.47,10.27-3.11,10.14,5.32
				C1061.17,745.08,1061.24,750.64,1061.24,756.2z"/>
			<path class="st2" d="M1067.28,760.84c0-2.05-0.2-4.12,0.03-6.15c0.76-6.78-2.95-18.38,2.03-19.46c11.54-2.5,24.57-3.78,35.98,2.6
				c5.39,3.01,7.47,14.63,3.09,19.8c-3.18,3.75-1.59,4.98,0.27,8.11c3.36,5.68,0.2,12.74,2.7,18.86c0.18,0.45-0.67,1.91-1.06,1.92
				c-4.95,0.14-10.07,0.88-14.8-0.14c-4.17-0.9-3.34-5.57-3.54-9c-0.09-1.46-0.02-2.93-0.03-4.39c-0.02-2.54-0.68-5.07-3.63-4.96
				c-2.86,0.1-2.16,2.92-2.36,4.83c-0.09,0.87-0.01,1.76-0.02,2.64c-0.18,11.36-3.93,14-15.39,11.53c-3.41-0.73-3.23-2.75-3.24-5.08
				C1067.27,774.9,1067.29,767.87,1067.28,760.84z"/>
			<path class="st2" d="M1303.93,754.63c8.15,3.56,16.7,6.74,15.71,18.22c-0.4,4.62-2.29,8.43-5.93,11.29
				c-8.36,6.57-25.59,5.96-32.74-1.16c-3.54-3.53-5.66-7.75-3.4-12.59c1.15-2.46,13.36-1,15.71,1.5c0.96,1.02,1.83,2.33,3.02,2.88
				c1.67,0.77,3.61,0.46,4.63-1.28c1.24-2.1-0.48-3.36-1.98-4.07c-3.96-1.86-8.12-3.29-12.06-5.17c-7.04-3.36-10.93-8.7-9.61-16.85
				c1.29-8,6.52-12.12,14.07-13.61c16.7-3.29,26.65,2.85,28.14,17.21c-6.23,2.59-12.41,1.15-18.39,0.44
				C1301.53,752.39,1303.38,752.99,1303.93,754.63z"/>
			<path class="st2" d="M644.99,786.96c-4.3-0.34-8.86,1.51-11.15-5.2c-1.36-3.98-6.34-4-9.25,0.46c-2.39,3.65-13.15,6.59-16.49,4.5
				c-2.15-1.35-0.96-3.15-0.58-4.63c3.81-14.7,7.71-29.38,11.66-44.04c0.35-1.31,0.3-3.44,2.04-3.53c5.83-0.3,11.79-1,17.47-0.1
				c4.47,0.71,3.7,6.02,4.65,9.44c3.13,11.25,5.93,22.59,8.89,33.89C654.63,786.96,654.65,786.96,644.99,786.96z"/>
			<path class="st2" d="M698.85,760.4c0-6.75,0.19-13.5-0.07-20.24c-0.18-4.44,1.17-6.31,5.92-6.16c9.38,0.3,18.78,0.33,28.16,0.01
				c6.56-0.22,4.75,4.27,5.04,7.74c0.33,3.88,0.02,7.12-5.32,6.47c-2.31-0.28-4.72-0.28-7.03,0.02c-2.76,0.35-7.26-1.87-7.16,3.63
				c0.1,4.98,4.38,3.18,6.66,2.93c6.93-0.76,6.04,3.79,5.7,7.79c-0.41,4.87-4.41,2.39-6.87,2.9c-2.35,0.49-5.51-0.9-5.63,3.45
				c-0.13,4.35,2.89,3.54,5.4,3.63c2.05,0.07,4.13,0.2,6.16-0.02c5.41-0.59,8.45,0.19,8.37,7.15c-0.08,6.69-2.66,7.63-8.3,7.37
				c-8.49-0.4-17.02-0.27-25.52-0.04c-4.14,0.11-5.75-1.26-5.59-5.5C699.04,774.49,698.85,767.44,698.85,760.4z"/>
			<path class="st2" d="M829.25,734.08c3.81,0,7.62,0.13,11.42-0.03c4.96-0.21,8.7-0.5,8.87,6.87c0.18,7.95-4.04,7.56-9.23,7.27
				c-0.88-0.05-1.81-0.21-2.62,0.03c-2.89,0.84-8-2.45-8.16,3.46c-0.15,5.54,4.73,3.16,7.27,3.11c4.57-0.1,5.22,1.93,5.22,5.81
				c0.01,3.82-1.21,5.39-5.05,4.98c-1.73-0.19-3.51,0-5.26,0.09c-1.88,0.1-2.33,1.41-2.34,3c-0.01,1.78-0.04,3.68,2.42,3.79
				c2.92,0.13,5.92,0.52,8.77,0.05c7.83-1.3,9.51,2.39,8.81,9.3c-0.36,3.54-1.06,5.29-5,5.21c-9.66-0.19-19.33-0.25-28.99,0.02
				c-4.49,0.13-5.31-1.85-5.26-5.75c0.17-13.17,0.38-26.36-0.08-39.52c-0.21-6.15,1.59-8.51,7.8-7.76
				C821.59,734.45,825.44,734.08,829.25,734.08z"/>
			<path class="st7" d="M918.73,760.47c0.01-7.03,0.09-14.07-0.03-21.1c-0.06-3.59,1.12-5.49,5.03-5.31
				c8.76,0.39,17.59-0.86,26.28,1.08c9.2,2.05,12.21,7.05,11.77,19.37c-0.32,8.82-4.4,14.57-12.99,14.57
				c-9.49,0-12.36,3.71-10.98,12.39c0.66,4.18-1.37,5.39-5.5,5.59c-13.6,0.66-13.6,0.84-13.6-12.52
				C918.72,769.85,918.72,765.16,918.73,760.47z"/>
			<path class="st8" d="M673.43,734.07c4.41,0,8.81-0.02,13.22,0c4,0.02,8.52-1.14,8.29,5.64c-0.18,5.24,0.48,10.34-7.41,9.27
				c-4.67-0.63-5.08,2.52-5.04,6.13c0.1,8.52-0.33,17.06,0.12,25.55c0.48,8.98-5.91,5.94-10.2,6.21c-4.46,0.27-9.63,1.55-8.98-6.47
				c0.67-8.17-0.04-16.45,0.22-24.66c0.14-4.59-0.76-7.59-6.17-6.83c-7.2,1.01-5.93-3.99-6.34-8.36c-0.55-5.92,2.37-6.88,7.31-6.56
				C663.42,734.32,668.43,734.07,673.43,734.07z"/>
			<path class="st8" d="M1152.33,734.07c4.11,0,8.29,0.44,12.33-0.1c7.52-1.01,9.8,2.05,9.1,9.26c-0.38,3.95-1.21,6.31-5.53,5.65
				c-6.44-0.99-7.21,2.58-7.04,7.77c0.28,8.22-0.27,16.47,0.17,24.67c0.38,6.93-4.28,6.12-8.05,5.47c-3.97-0.68-11,3.97-10.98-5.27
				c0.02-8.52-0.13-17.04,0.05-25.56c0.09-4.34-0.39-7.77-5.98-7.04c-7.01,0.92-6.2-3.81-6.51-8.36c-0.39-5.87,2.51-6.88,7.45-6.57
				C1142.32,734.32,1147.33,734.07,1152.33,734.07z"/>
			<path class="st9" d="M742.91,760.75c0-4.99,0-9.98,0-14.98c0-11.83,3.2-14.12,15.23-11.75c3.87,0.76,3.64,3.19,3.66,5.77
				c0.07,8.81,0.28,17.63-0.06,26.42c-0.2,5.02,1.51,6.98,6.49,6.4c2.32-0.27,4.73,0.24,7.03-0.1c5.99-0.88,6.57,2.35,6.57,7.22
				c-0.01,4.88-0.66,7.66-6.6,7.34c-8.78-0.47-17.62-0.35-26.42-0.03c-4.67,0.17-6.19-1.46-5.98-6.04
				C743.15,774.26,742.91,767.5,742.91,760.75z"/>
			<path class="st9" d="M804.61,761.22c0,4.4,0,8.81,0,13.21c0,12.5-3.82,15.31-16.17,12.58c-3.44-0.76-3.21-2.81-3.21-5.12
				c-0.02-14.1,0.1-28.19-0.08-42.29c-0.05-4.17,1.38-5.44,5.57-5.65c13.9-0.67,13.89-0.86,13.89,13.16
				C804.61,751.82,804.61,756.52,804.61,761.22z"/>
			<path class="st10" d="M1303.93,754.63c-1.39-0.41-2.79-0.77-4.16-1.25c-2.26-0.79-4.53-1.81-4.51-4.6
				c0.01-0.79,1.31-1.93,2.26-2.29c2.39-0.91,3.53,0.94,4.96,2.48c5.03,5.43,11.19,2.54,17.02,2.03
				C1315.3,756.46,1308.51,750.81,1303.93,754.63z"/>
			<path class="st11" d="M991.96,761.31c0,3.2,0.11,6.4-0.04,9.59c-0.09,1.87-1.07,3.32-3.24,3.31c-2.11-0.01-3.4-1.42-3.45-3.22
				c-0.18-6.67-0.18-13.35-0.01-20.02c0.05-1.8,1.36-3.21,3.42-3.3c2.83-0.12,3.29,1.94,3.36,4.05c0.11,3.2,0.03,6.4,0.03,9.6
				C992.01,761.31,991.98,761.31,991.96,761.31z"/>
			<path class="st12" d="M1203.86,760.51c-2.18,4.78,2.54,13.04-3.86,13.02c-7.26-0.02-3.3-8.36-3.45-12.79
				c-0.14-4.26-3.34-12.47,2.86-12.48C1207.21,748.24,1200.81,756.92,1203.86,760.51z"/>
			<path class="st13" d="M873.2,752.28c0.41-1.81-0.93-4.59,2.07-4.84c3.1-0.26,3.56,2.14,3.54,4.69c-0.02,2.4-0.03,5.2-3.01,5.3
				C872.12,757.54,873.7,754.17,873.2,752.28z"/>
			<path class="st14" d="M1085.76,751.88c0.18-1.93-0.34-4.57,2.53-4.6c3.5-0.04,3.85,2.65,3.79,5.5c-0.05,2.65-0.9,4.89-3.79,4.61
				C1084.99,757.06,1086.03,754.01,1085.76,751.88z"/>
			<path class="st15" d="M630.52,761.72c0.85,2.73,4.34,6.2-1.92,6.93c-1.16,0.14-1.69-0.82-0.53-0.61c0.03,0,0.15-0.51,0.22-0.79
				C630.56,766.02,628.55,763.06,630.52,761.72z"/>
			<path class="st16" d="M630.52,761.72c-0.43,1.97,0.43,4.46-2.23,5.53c0.17-2.15-0.19-4.53,0.66-6.37
				C629.8,759.06,630.2,760.95,630.52,761.72z"/>
			<path class="st17" d="M937.44,753.49c0.4-2.27-0.91-5.7,3.13-5.79c3.25-0.07,3.25,2.68,3.18,4.99c-0.08,2.51,0.29,5.73-3.33,5.91
				C936.93,758.76,937.73,755.67,937.44,753.49z"/>
		</g>
	</g>
</g>
<g id="color_palet">
</g>
</svg>
